<?xml version="1.0" encoding="utf-8"?>
<!-- Generator: Adobe Illustrator 27.5.0, SVG Export Plug-In . SVG Version: 6.00 Build 0)  -->
<svg version="1.1" xmlns="http://www.w3.org/2000/svg" xmlns:xlink="http://www.w3.org/1999/xlink" x="0px" y="0px"
	 viewBox="0 0 500 500" style="enable-background:new 0 0 500 500;" xml:space="preserve">
<g id="BACKGROUND">
	<rect style="fill:#9FCFFF;" width="500" height="500"/>
	<g>
		<path style="fill:#3690FF;" d="M102.401,278.148c2.94,29.402,16.276,57.66,37.103,78.621
			c15.861,15.963,35.64,27.559,56.233,36.631c40.996,18.06,87.33,26.646,131.056,16.903c43.726-9.743,84.096-39.721,99.665-81.727
			c15.569-42.006,1.853-94.916-35.943-118.966c-18.627-11.852-43.28-18.194-52.65-38.185c-4.872-10.396-4.359-22.388-6.224-33.717
			c-5.807-35.265-36.808-63.856-71.947-70.376s-72.509,7.501-97.587,32.965l0,0c-24.463,24.84-33.016,54.863-39.448,87.984
			c-2.786,14.344-11.584,26.586-15.685,40.747C102.374,244.916,100.754,261.683,102.401,278.148z"/>
	</g>
</g>
<g id="OBJECTS">
	<g>
		<g>
			<path style="fill:#FFFFFF;" d="M302.78,318.244c-1.617,1.076-3.233,2.152-4.85,3.228c-0.395,0.263-0.801,0.537-1.06,0.934
				c-0.259,0.398-0.333,0.956-0.048,1.335c0.663,0.884,2.438,0.074,3.006,1.022c0.379,0.632-0.182,1.389-0.652,1.956
				c-0.718,0.865-1.319,1.888-1.396,3.01c-0.077,1.122,0.487,2.341,1.531,2.757c0.746,0.297,1.615,0.147,2.32-0.239
				c0.705-0.385,1.269-0.982,1.778-1.603c1.544-1.883,2.696-4.086,3.361-6.429c0.291-1.026,0.49-2.1,0.346-3.157
				c-0.144-1.057-0.672-2.1-1.574-2.667c-0.903-0.567-2.198-0.546-2.958,0.201"/>
		</g>
		<g>
			<path style="fill:#C13363;" d="M293.129,333.29L293.129,333.29c0.119,0.235,0.248,0.479,0.465,0.63
				c0.565,0.392,1.319-0.046,1.859-0.471c3.197-2.516,6.395-5.031,9.592-7.547c0.817-0.643,1.659-1.316,2.13-2.243
				c0.528-1.04,0.519-2.261,0.473-3.426c-0.009-0.23-0.031-0.486-0.204-0.638c-0.164-0.145-0.408-0.142-0.626-0.123
				c-1.966,0.175-3.79,1.078-5.493,2.077c-0.945,0.555-2.12,1.154-3.066,0.602c-1.282-0.748-0.872-2.825-1.865-3.928
				c-0.786-0.874-2.174-0.833-3.301-0.499c-2.971,0.881-4.849,2.392-4.11,5.419C289.831,326.624,291.516,330.108,293.129,333.29z"/>
		</g>
		<g>
			<path style="fill:#C13363;" d="M211.369,315.087L211.369,315.087c-0.303,0.498-0.617,1.009-1.083,1.359
				c-0.961,0.724-2.344,0.585-3.433,0.074c-1.09-0.511-1.998-1.335-3.018-1.974c-2.438-1.528-5.63-2.1-7.282-4.456
				c-0.393-0.56-0.68-1.255-0.523-1.921c0.301-1.28,1.999-1.667,3.27-1.33c1.271,0.337,2.418,1.126,3.728,1.247
				c2.505,0.23,4.525-2.008,5.735-4.213c0.164-0.299,0.329-0.611,0.595-0.825c0.701-0.566,1.793-0.21,2.42,0.438
				c0.813,0.841,3.55,3.617,3.637,4.688C215.553,309.884,212.267,313.611,211.369,315.087z"/>
		</g>
		<g>
			<path style="fill:#4035C0;" d="M218.838,258.374L218.838,258.374c-2.244,6.445-5.543,12.51-7.388,19.08
				c-1.68,5.982-2.117,12.25-3.661,18.269c-0.874,3.406-2.112,6.891-1.487,10.351c0.624,3.461,4.05,6.728,7.399,5.654
				c2.157-0.692,3.453-2.841,4.495-4.853c5.105-9.861,8.783-20.46,10.885-31.363c1.396-7.24,2.116-14.67,4.654-21.593
				c1.135-3.096,2.62-6.05,4.046-9.024c6.463-13.481,13.382-33.64,15.037-33.64c2.341,0.836,4.67,8.86,8.02,17.008
				c2.973,7.23,5.945,14.461,8.918,21.691c1.096,2.666,2.193,5.333,3.395,7.953c0.853,1.86,1.764,3.705,2.338,5.669
				c0.758,2.592,0.909,5.315,1.106,8.008c1.117,15.219,4.422,34.871,8.739,49.508c0.247,0.839,0.564,1.759,1.332,2.178
				c0.746,0.408,1.663,0.204,2.486-0.01c2.912-0.758,5.824-1.516,8.737-2.275c-1.987-15.924-5.221-36.306-7.897-52.129
				c-0.413-2.444-0.827-4.887-1.24-7.331c-0.298-1.76-0.595-3.521-0.893-5.281c-0.812-4.799-1.623-9.597-2.435-14.396
				c-2.231-13.191-7.853-25.33-11.63-38.164c-2.202-7.482-5.254-10.441-10.552-12.622c-2.661-1.095-5.58-1.403-8.457-1.451
				c-5.466-0.092-11.134,0.826-16.004,3.408c-5.068,2.687-6.285,6.15-8.426,11.15c-4.684,10.936-5.551,22.99-7.205,34.636
				C222.208,245.421,221.041,252.046,218.838,258.374z"/>
		</g>
		<g>
			<path style="fill:#FFFFFF;" d="M244.61,196.011c-4.427,5.097-7.148,11.273-9.221,17.639c-2.363,7.255-4.248,14.681-6.311,22.025
				c-4.415,15.719-8.823,31.44-13.127,47.19c-2.468,9.03-4.9,18.069-7.281,27.122c-0.27,1.026,1.318,1.464,1.588,0.438
				c8.1-30.794,16.499-61.555,25.425-92.12c2.199-7.53,4.871-15.119,10.091-21.13C246.467,196.379,245.307,195.209,244.61,196.011z"
				/>
			<path style="fill:#FFFFFF;" d="M293.87,321.45c-1.319-4.211-2.643-8.433-3.516-12.763c-0.89-4.412-0.838-8.805-1.234-13.262
				c-0.374-4.209-1.603-8.261-2.51-12.372c-0.976-4.424-1.728-8.892-2.533-13.349c-1.573-8.709-3.667-17.277-6.033-25.802
				c-2.316-8.345-4.568-16.734-7.118-25.01c-1.289-4.183-2.854-8.312-5.242-12.004c-2.472-3.821-5.615-7.144-8.735-10.434
				c-0.731-0.771-1.894,0.395-1.165,1.165c2.825,2.979,5.677,5.971,7.993,9.374c2.344,3.442,3.936,7.26,5.206,11.21
				c2.572,8,4.684,16.177,6.951,24.268c2.385,8.512,4.596,17.064,6.206,25.76c0.785,4.242,1.488,8.499,2.347,12.727
				c0.847,4.17,2.102,8.276,2.749,12.484c0.736,4.792,0.427,9.655,1.293,14.447c0.86,4.762,2.308,9.388,3.752,13.998
				C292.598,322.896,294.188,322.466,293.87,321.45z"/>
		</g>
		<path style="fill:#2020A4;" d="M231,202.909c0,0,2.416,9.224,13.068,6.589c10.652-2.636,11.75-4.356,16.143-1.739
			c4.393,2.617,11.586-5.399,11.97-7.815c0.383-2.416-18.879-6.15-18.879-6.15l-15.603,4.283L231,202.909z"/>
		<g>
			<path style="fill:#94CAFF;" d="M258.647,142.953c0.297-0.367,1.263,0.421,2.332,0.518c1.769,0.161,3.86,0.696,5.467,0.603
				c1.259-0.073,2.794-0.365,3.556,0.641c0.31,0.409,0.394,0.941,0.468,1.449c0.439,3.019,0.873,6.141,0.066,9.082
				c-0.673,2.451-2.159,4.589-3.158,6.925c-1.745,4.079-1.958,8.634-1.959,13.071c0,1.677,0.027,3.363,0.333,5.011
				c0.557,2.999,2.007,5.742,3.316,8.497c1.309,2.755,3.488,5.728,3.496,8.778c0.009,3.05-2.417,6.224-5.187,7.501
				c-4.131,1.904-8.801-1.127-13.347-1.279c-2.711-0.091-5.337,0.859-7.871,1.824c-2.535,0.965-5.127,1.973-7.839,2.005
				s-5.617-1.13-6.873-3.534c-0.6-1.148-0.778-2.482-0.693-3.775c0.379-5.774,5.473-9.98,8.001-15.184
				c2.314-4.761,2.417-10.295,1.868-15.56c-0.548-5.265-1.7-10.481-1.731-15.775c-0.015-2.646-0.15-10.833,5.448-10.005
				c2.012,0.298,3.512-0.45,5.167,0.473C252.41,145.837,256.429,145.694,258.647,142.953z"/>
		</g>
		<g>
			<path style="fill:#FE6B85;" d="M284.013,100.213c0.808-1.877,1.911-3.786,1.667-5.815c-0.266-2.212-2.109-4.073-2.071-6.3
				c0.006-0.376,0.103-0.804,0.434-0.984c0.63-0.343,1.268,0.504,1.978,0.611c0.903,0.136,1.508-0.965,1.505-1.879
				s-0.314-1.861,0.002-2.718c0.54-1.467,2.756-1.699,3.929-0.666c1.173,1.033,1.415,2.802,1.117,4.336
				c-0.298,1.534-1.04,2.941-1.553,4.417c-1.916,5.52-0.537,11.58-0.861,17.414c-0.176,3.173-0.861,6.292-1.544,9.396
				c-0.904,4.111-1.995,8.539-5.242,11.219l-0.001,0.001c-2.079,1.715-5.799,2.057-6.718-1.116
				c-0.734-2.536,2.031-5.555,2.824-7.901C281.676,113.718,281.275,106.574,284.013,100.213z"/>
		</g>
		<path style="fill:#FC4061;" d="M277.213,124.471c0,0,0.37-2.331,2.105-0.711c1.977,1.846,6.889,1.955,6.889,1.955l-0.876,2.245
			l-6.095-2.167L277.213,124.471z"/>
		<g>
			<path style="fill:#94CAFF;" d="M271.288,135.146c2.495-4.612,3.502-8.835,5.331-11.026c0,0,4.148,1.213,6.941,1.801
				c1.174,0.247,2.592,1.883,1.647,4.106c-5.072,11.938-11.321,22.67-18.904,33.193c-0.202,0.28-0.441,0.583-0.783,0.629
				c-0.483,0.065-0.852-0.407-1.093-0.83c-2.712-4.765-6.001-19.905-0.558-19.445C269.394,144.041,269.953,137.615,271.288,135.146z
				"/>
		</g>
		<g>
			<path style="fill:#FE6B85;" d="M249.032,147.946L249.032,147.946c1.574,1.212,3.812,1.316,5.674,0.624
				c2.058-0.764,3.793-2.527,4.226-4.678c0.207-1.03,0.12-2.094,0.032-3.141c-0.072-0.855-0.144-1.711-0.216-2.566
				c-0.067-0.797-0.141-1.619-0.511-2.328c-0.639-1.225-2.026-1.864-3.369-2.186c-1.945-0.466-4.383-0.241-5.388,1.488
				c-0.661,1.137-0.481,2.559-0.233,3.851c0.115,0.599,0.241,1.209,0.167,1.815c-0.165,1.356-1.606,1.688-1.977,2.957
				C247.007,145.249,247.878,147.058,249.032,147.946z"/>
		</g>
		<path style="fill:#81AFFF;" d="M239.275,161.073c0,0,1.486,7.267,1.547,10.875c0.061,3.608,0.632,8.76-2.066,13.138
			c-2.698,4.378-8.301,10.404-8.001,15.184c0.3,4.78,2.365,8.345,7.566,7.309c5.201-1.037,9.842-2.826,11.189-3.169
			c1.347-0.343,4.402-0.835,6.046-0.512s5.479-1.978,2.844-2.637c-2.635-0.659-15.881-2.594-13.788-5.25
			c2.093-2.656,12.422-4.385,9.564-6.403c-2.858-2.018-11.308-2.968-9.966-5.87c1.342-2.902,5.202-2.737,7.802-5.043
			c2.6-2.306-4.894-3.789-6.418-5.106c-1.524-1.318,10.908,0.824,9.963-1.153S239.26,171.618,239.275,161.073z"/>
		<path style="fill:#81AFFF;" d="M266.26,165.628c0,0-1.732,3.842-4.385,4.995c-2.653,1.153,3.501,2.319,3.543,4.619L266.26,165.628
			z"/>
		<path style="fill:#81AFFF;" d="M276.496,124.265c0,0-2.229,1.444,0.077,2.323c2.306,0.879,6.307,1.457,5.46,3.474
			c-0.848,2.017-4.166,11.951-6.009,15.771c-1.43,2.963-8.753,16.004-8.753,16.004s2.257-3.154,4.965-7.191
			c5.893-8.786,11.127-19.839,12.375-22.677c1.248-2.838,2.544-4.997-1.174-5.903C279.719,125.16,276.496,124.265,276.496,124.265z"
			/>
		<g>
			<path style="fill:#FE6B85;" d="M222.849,100.213c-0.808-1.877-1.911-3.786-1.667-5.815c0.267-2.212,2.109-4.073,2.071-6.3
				c-0.007-0.376-0.103-0.804-0.434-0.984c-0.63-0.343-1.268,0.504-1.978,0.611c-0.903,0.136-1.508-0.965-1.505-1.879
				c0.003-0.913,0.314-1.861-0.002-2.718c-0.54-1.467-2.756-1.699-3.929-0.666c-1.173,1.033-1.415,2.802-1.117,4.336
				c0.298,1.534,1.04,2.941,1.553,4.417c1.916,5.52,0.537,11.58,0.861,17.414c0.176,3.173,0.861,6.292,1.544,9.396
				c0.904,4.111,1.995,8.539,5.242,11.219l0.001,0.001c2.079,1.715,5.799,2.057,6.718-1.116c0.734-2.536-2.031-5.555-2.824-7.901
				C225.186,113.718,225.586,106.574,222.849,100.213z"/>
		</g>
		<polyline style="fill:#FC4061;" points="221.748,127.466 220.703,125.715 228.873,123.187 229.767,124.946 		"/>
		<g>
			<path style="fill:#94CAFF;" d="M235.697,135.29c-2.495-4.612-3.502-8.835-5.331-11.026c0,0-4.148,1.213-6.941,1.801
				c-1.174,0.247-2.592,1.883-1.647,4.106c5.072,11.938,11.321,22.67,18.904,33.193c0.202,0.28,0.441,0.583,0.783,0.629
				c0.483,0.065,0.852-0.407,1.093-0.83c2.712-4.765,6.001-19.905,0.558-19.445C237.592,144.185,237.033,137.759,235.697,135.29z"/>
		</g>
		<path style="fill:#81AFFF;" d="M230.366,124.265c0,0,2.229,1.444-0.077,2.323c-2.306,0.879-6.307,1.457-5.46,3.474
			c0.848,2.017,1.313,7.349,2.602,10.377c2.471,5.806,12.16,21.398,12.16,21.398s-2.585-2.66-5.293-6.697
			c-5.894-8.786-10.799-20.333-12.046-23.171c-1.248-2.838-2.544-4.997,1.174-5.903C227.143,125.16,230.366,124.265,230.366,124.265
			z"/>
		<path style="fill:#FC4061;" d="M249.204,135.786c-0.069,0.194,0.099,5.061,4.098,3.779c3.999-1.282,4.273,2.067,3.999,3.769
			c-0.275,1.702-4.622,6.039-8.269,4.612c0,0,3.398,2.823,7.178-0.153c3.781-2.976,2.814-6.323,2.689-7.804
			c-0.125-1.481,0.454-6.155-4.032-6.319C250.382,133.506,250.222,132.905,249.204,135.786z"/>
		<g>
			<path style="fill:#FE6B85;" d="M244.672,118.886c0,0-0.338,9.204,0.724,11.43c1.21,2.536,3.311,7.917,7.918,8.001
				c4.398,0.081,7.975-6.452,8.637-8.326c0.641-1.812,1.316-8.879,0.617-11.406C261.87,116.06,252.588,103.948,244.672,118.886z"/>
		</g>
		<g>
			<path style="fill:#2020A4;" d="M251.723,122.809L251.723,122.809c-0.352,0.112-0.719-0.084-1.055-0.237
				c-1.498-0.679-3.339-0.539-4.717,0.36c0.542-0.694,1.358-1.134,2.204-1.376c0.847-0.243,1.733-0.305,2.612-0.366
				c0.265-0.019,0.538-0.036,0.79,0.046C252.157,121.429,252.47,122.573,251.723,122.809z"/>
		</g>
		<g>
			<path style="fill:#2020A4;" d="M255.776,122.98L255.776,122.98c0.342,0.139,0.723-0.027,1.071-0.153
				c1.547-0.559,3.371-0.274,4.674,0.731c-0.486-0.735-1.264-1.237-2.089-1.546c-0.825-0.309-1.703-0.441-2.574-0.571
				c-0.263-0.039-0.533-0.078-0.792-0.017C255.453,121.57,255.05,122.685,255.776,122.98z"/>
		</g>
		<g>
			<path style="fill:#2020A4;" d="M251.813,126.623c0,0-1.032-1.201-2.547-1.2c-1.516,0.001-2.075,0.981-2.968-0.201
				c0,0,0.357,0.472,1.037,0.144C248.016,125.038,250.442,124.318,251.813,126.623z"/>
		</g>
		<g>
			<path style="fill:#2020A4;" d="M255.28,126.503c0,0,1.075-1.162,2.589-1.105c1.515,0.057,2.037,1.056,2.973-0.091
				c0,0-0.374,0.459-1.042,0.106C259.133,125.058,256.735,124.249,255.28,126.503z"/>
		</g>
		<g>
			<path style="fill:#2020A4;" d="M251.202,133.565c-0.044-0.081,1.121,1.851,2.273,1.718c1.197-0.139,2.552-2.048,2.552-2.048
				s-1.347,1.013-2.532,1.001C252.39,134.225,251.224,133.605,251.202,133.565z"/>
		</g>
		<g>
			<path style="fill:#2020A4;" d="M252.749,132.157c0.427,0.008,0.624,0.221,0.834,0.225c0.21,0.004,0.59-0.199,0.842-0.194
				c0.838,0.015,0.826,0.644,2.09,0.248c0,0-0.43,0.621-1.691,0.807c-0.528,0.078-0.838-0.015-1.257-0.023
				c-0.419-0.008-0.841,0.194-1.26,0.186c-0.419-0.008-1.664-0.659-1.664-0.659C251.9,132.77,251.912,132.142,252.749,132.157z"/>
		</g>
		<g>
			<path style="fill:#2020A4;" d="M256.438,132.097c0,0,0.419,0.008,0.411,0.427C256.849,132.523,257.07,131.899,256.438,132.097z"
				/>
		</g>
		<g>
			<path style="fill:#2020A4;" d="M252.251,129.292c0,0-0.208,0.291-0.069,0.627c0.139,0.336,0.662,0.202,0.677,0.287
				c0.015,0.085,0.209,0.576,0.704,0.569c0.495-0.007,0.633-0.536,0.73-0.551c0.096-0.015,0.928,0.093,0.777-0.83
				c0,0,0.234,0.573-0.009,0.833c-0.243,0.26-0.728,0.023-0.769,0.064c-0.041,0.041-0.115,0.58-0.724,0.569
				c-0.713-0.013-0.718-0.613-0.806-0.631c-0.055-0.012-0.531,0.098-0.679-0.131C251.912,129.835,251.974,129.54,252.251,129.292z"
				/>
		</g>
		<g>
			<path style="fill:#FB5839;" d="M249.58,110.775"/>
		</g>
		<g>
			<path style="fill:#2020A4;" d="M264.848,122.257c-0.029-1.414-0.058-2.84-0.369-4.22c-0.38-1.689-1.323-4.794-3.845-6.942
				c0.737-0.777,1.265-1.828,1.477-3.231c0.4-2.646-1.11-5.469-3.534-6.604c-2.118-0.992-4.594-0.727-6.893-0.294l0,0
				c-2.901,0.546-5.51,1.876-5.711,5.149c-0.125,2.032,0.452,3.533,1.538,4.606c-3.546,2.591-4.713,6.953-4.68,7.931
				c0.068,1.999-0.133,3.419,0.42,5.341c0.557,1.937,0.474,4.052-0.233,5.94c-0.279,0.745-0.653,1.456-0.872,2.221
				c-0.543,1.897-0.033,4.06,1.301,5.514c0.994,1.084,2.457,1.884,2.827,3.307c0.614,2.361-2.219,4.658-1.493,6.986
				c0.331,1.063,1.358,1.839,1.542,2.938c-0.244-1.377-0.471-2.875,0.189-4.108c0.256-0.478,0.63-0.88,0.958-1.311
				c1.79-2.347,2.079-5.971,0.098-8.158c-0.555-0.612-1.248-1.085-1.815-1.686c-1.526-1.617-1.965-4.169-1.067-6.202
				c0.243-0.551,0.573-1.061,0.8-1.619c0.399-0.982,0.46-2.098,0.171-3.117c-0.225-0.793-0.654-1.528-0.784-2.342
				c-0.492-3.095,3.051-1.954,4.77-1.889c1.291,0.049,2.818-0.526,3.072-1.794c0.484,0.24,0.401,0.989,0.77,1.383
				c0.194,0.207,0.485,0.285,0.759,0.354c1.056,0.265,2.16,0.532,3.221,0.286c1.061-0.246,2.048-1.179,1.963-2.264
				c-0.023,1.192,0.77,2.356,1.887,2.771c0.253,0.094,0.524,0.156,0.739,0.318c0.206,0.155,0.338,0.387,0.447,0.62
				c0.532,1.146,0.593,2.499,0.176,3.692c-0.833,1.591-2.406,2.923-3.016,4.661c-0.36,1.024-0.36,2.171,0.001,3.196
				c0.294,0.835,0.81,1.572,1.185,2.373c0.375,0.802,0.604,1.741,0.287,2.567c-0.215,0.558-0.655,1.002-0.902,1.546
				c-0.555,1.22-0.051,2.776,0.977,3.636c1.16,0.971,1.517,1,2.535,1.113c-0.199-1.215-0.997-1.471-1.475-2.862
				c-0.897-2.612-1.033-5.557,0.047-8.099c0.243-0.573,0.543-1.119,0.838-1.667c0.007-0.012,0.015-0.024,0.022-0.036
				c0.256-0.429,0.47-0.874,0.656-1.329c0.466-1.092,0.725-2.249,0.855-3.43C264.903,125.779,264.883,123.992,264.848,122.257z"/>
		</g>
	</g>
	<g>
		<g>
			<g>
				<path style="fill:#FD657E;" d="M101.731,434.484c0,0-2.236,0.395-3.157,1.022c-0.921,0.626-1.506,2.954-0.919,3.9
					c0.562,0.906,1.813,1.014,2.879,1.023c3.091,0.027,9.253,0.055,12.344,0.082c1.513,0.014,3.162-0.019,4.332-0.978
					c0.876-0.718,1.312-1.827,1.714-2.886c0.955-2.515,3.389-6.295,4.344-8.81c0.461-1.215,0.927-2.455,0.989-3.753
					c0.061-1.298-1.829-1.423-2.846-2.231c-3.816-3.036-6.331,0.772-7.063,3.103C112.109,432.091,105.823,433.566,101.731,434.484z"
					/>
			</g>
			<g>
				<path style="fill:#FD657E;" d="M237.907,421.226c-0.124,3.836-0.248,7.672-0.371,11.508c-0.027,0.839-0.038,1.738,0.425,2.438
					c0.693,1.048,2.133,1.228,3.388,1.294c4.55,0.24,9.109,0.316,13.665,0.228c0.799-0.015,1.686-0.072,2.241-0.647
					c0.671-0.695,0.54-1.866,0.038-2.692c-2.236-3.678-8.964-1.962-11.158-5.665c-1.166-1.969-0.511-4.815-2.145-6.418
					c-1.438-1.411-3.788-1.03-5.745-0.55"/>
			</g>
			<g>
				<path style="fill:#3835BA;" d="M138.315,341.496c-5.327,8.499-9.676,22.828-13.35,36.404c-2.97,10.973-5.94,21.946-8.911,32.919
					c-0.736,2.718-2.422,7.539-2.118,10.338c0.304,2.8,2.841,3.62,5.491,4.573c2.504,0.9,4.617,2.123,6.589,0.336
					c1.971-1.787,3.964-6.466,5.015-8.91c6.353-14.77,8.108-31.32,15.498-45.599c4.988-9.637,12.33-17.817,19.591-25.881
					c4.447-4.939,8.894-9.878,13.341-14.817c0.835-0.928,1.834-1.93,3.082-1.907c0.931,0.018,1.738,0.613,2.475,1.182
					c15.694,12.127,31.388,24.254,47.083,36.381c-0.914,19.193,0.134,39.798,3.181,58.769c3.703,1.098,9.179,0.954,12.477-0.329
					c1.356-0.528,0.482-9.176,0.734-13.085c0.578-8.94,1.156-17.879,1.733-26.819c0.47-7.269,0.926-14.69-0.948-21.729
					c-2.153-8.085-7.218-15.056-12.523-21.527c-8.753-10.677-18.62-20.714-30.625-27.533c-9.895-5.62-21.417-8.94-32.854-8.073
					c-5.714,0.433-3.66,1.935-8.188,5.495C160.861,315.009,143.834,332.692,138.315,341.496z"/>
			</g>
			<path style="fill:#2020A4;" d="M165.001,310.676c0,0,5.929,11.124,18.284,9.743c12.354-1.38,18.021-8.257,18.021-8.257
				L165.001,310.676z"/>
			<g>
				<path style="fill:#81AFFF;" d="M215.852,212.199L215.852,212.199c0.306-1.405,0.609-2.89,0.163-4.257
					c-0.34-1.039-1.078-1.894-1.59-2.86c-0.512-0.966-1.232-3.281-0.141-3.11c0.364,0.021,1.901,1.586,2.843-0.017
					c0.571-0.973,0.799-2.082,0.925-3.204c0.126-1.122,0.402-2.355,1.329-2.999c1.481-1.029,3.656,0.254,4.228,1.964
					c0.572,1.711,0.072,3.57-0.356,5.322c-3.861,15.803-1.791,34.5-9.016,49.076c-0.848,1.711-2.007,2.182-3.871,2.595
					c-1.8,0.399-3.686-0.743-4.61-2.339c-1.572-2.717-2.353-3.645-1.033-6.249c1.699-3.353,4.283-8.605,5.499-12.161
					C212.648,226.862,214.256,219.519,215.852,212.199z"/>
			</g>
			<g>
				<path style="fill:#C13363;" d="M204.611,244.256L204.611,244.256c5.64,3.906,11.066,11.175,10.136,12.499
					c-2.92,4.158-3.574,5.337-8.236,10.07c-2.408,2.444-5.402,5.157-6.455,5.193c-2.098,0.072-6.117-14.581-4.324-15.673
					C205.313,250.514,202.447,242.969,204.611,244.256z"/>
			</g>
			<g>
				<path style="fill:#FD657E;" d="M167.888,258.098c-2.71,1.371-3.319,5.638-3.356,8.675c-0.037,3.037,0.508,6.047,0.813,9.069
					c0.609,6.039,0.249,12.175-1.061,18.102c-0.628,2.841-1.476,5.656-1.645,8.561c-0.168,2.905,0.431,5.995,2.363,8.171
					c1.629,1.835,4.001,2.814,6.337,3.562c7.134,2.283,14.779,2.952,22.201,1.942c2.328-0.317,4.762-0.86,6.482-2.46
					c2.352-2.188,2.754-5.814,2.173-8.973c-0.581-3.16-1.97-6.119-2.656-9.258c-2.068-9.46,2.415-19.099,2.458-28.782
					c0.015-3.32-1.384-6.711-2.108-9.951c-0.58-2.596-5.632-2.469-8.78-3.051l0,0C182.955,254.159,175.338,254.331,167.888,258.098z
					"/>
			</g>
			<path style="fill:#F45B79;" d="M173.268,256.933c0,0,6.4,3.642,6.338,19.772c-0.062,16.13,1.112,17.814,6.047,22.634
				c4.935,4.82,7.838,3.679,11.987,5.237c4.149,1.559,4.9,4.197,4.453,5.506c-0.447,1.309-0.472,7.215-17.135,6.521
				s-22.044-8.601-21.385-13.104c0.659-4.502,4.436-14.806,3.975-18.33C167.087,281.646,173.268,256.933,173.268,256.933z"/>
			<g>
				<path style="fill:#71C2FA;" d="M176.246,303.636L176.246,303.636c7.7,8.934,18.97,13.877,30.059,17.892
					c1.585,0.574,3.229,1.143,4.911,1.036c1.682-0.107,3.427-1.064,3.937-2.671c0.51-1.607-0.79-3.664-2.465-3.477
					c-0.618,0.069-1.17,0.402-1.744,0.644c-0.573,0.242-1.254,0.389-1.801,0.093c-0.548-0.296-0.745-1.197-0.22-1.532
					c0.352-0.224,0.848-0.107,1.193-0.341c0.53-0.36,0.252-1.274-0.324-1.557c-0.575-0.283-1.256-0.154-1.891-0.071
					c-5.614,0.735-10.907-2.578-15.392-6.033c-3.802-2.929-7.475-6.105-10.327-9.967c-2.851-3.861-3.901-8.264-4.963-13.276
					c-0.344-1.623-0.843-8.315-2.158-9.327c-1.667-1.282-3.985-1.173-6.077-0.95c-2.237,0.238-6.355,0.78-5.838,3.819
					c0.446,2.623,2.293,5.747,3.279,8.252C168.878,292.4,171.846,298.531,176.246,303.636z"/>
			</g>
			<path style="fill:#1E74FD;" d="M162.682,277.957h13.536c0,0,1.302,2.435-11.217,5.039"/>
			<g>
				<path style="fill:#C13363;" d="M160.98,276.341c0.196,1.439,0.635,2.985,1.827,3.816c1.366,0.952,3.211,0.638,4.838,0.285
					c2.419-0.525,4.838-1.05,7.257-1.575c1.004-0.218,2.087-0.482,2.738-1.278c0.752-0.919,0.684-2.237,0.577-3.419l0,0
					c-0.406-4.495,0.508-19.665-7.966-17.131C162.509,259.353,160.98,269.785,160.98,276.341z"/>
			</g>
			<g>
				<path style="fill:#81AFFF;" d="M183.967,261.547c2.325,1.517,5.903,0.758,7.209-1.691c1.578-2.96-0.31-6.765,0.869-9.906
					c0.22-0.586,0.543-1.134,0.704-1.738c0.161-0.605,0.128-1.313-0.296-1.774c-0.416-0.452-1.083-0.548-1.694-0.617
					c-2.031-0.229-4.061-0.458-6.092-0.688c-0.621-0.07-1.297-0.128-1.824,0.207c-0.745,0.474-2.327-0.155-2.366,0.727
					c0,0,0.085,5.142,0.005,7.638C180.386,256.777,181.698,260.413,183.967,261.547z"/>
			</g>
			<path style="fill:#1E74FD;" d="M191.635,252.793c0,0,0.834,4.721-3.243,3.486c-4.077-1.235-8.126-8.285-7.467-2.481
				c0.2,1.76,1.509,5.36,2.09,5.753c0.581,0.393-1.747,0.751-2.2-1.487c-0.453-2.238-0.335-7.015-0.335-7.015l1.076-1.441
				l4.228-0.906l4.031-0.124l3.025,0.865l0.452,1.391L191.635,252.793z"/>
			<path style="fill:#1E74FD;" d="M191.677,253.799c0,0,1.038,6.708-5.345,6.803c-5.303,0.078-5.852-6.112-5.852-6.112
				s-0.609,2.598,0,4.143c0.609,1.546,3.519,3.378,3.904,3.697c0.384,0.319,3.514-0.34,4.173-0.724
				c0.659-0.384,2.471-0.988,2.69-2.086c0.22-1.098,0.659-2.123,0.824-2.764s0.384-1.965,0.384-1.965l-0.754-0.631L191.677,253.799z
				"/>
			<path style="opacity:0.1;fill:#1D1D1B;" d="M180.479,254.79c0,0-12.613,0.884-14.705,9.038
				c-2.092,8.155-2.641,12.987,0.763,12.877c3.404-0.11,6.191-2.745,7.323-0.769c1.133,1.977-1.537,3.49-2.201,3.634
				c-0.664,0.144-8.473,3.42-10.092-0.985c-1.619-4.405-0.166-19.188,8.682-21.546C170.25,257.038,175.862,254.838,180.479,254.79z"
				/>
			<line style="fill:#1E74FD;" x1="165.001" y1="282.996" x2="162.682" y2="277.957"/>
			<path style="fill:#C13363;" d="M180.479,254.489c0,0,0.824,7.298,6.18,6.96c5.356-0.338,5.017-7.65,5.017-7.65l1.019,0.137
				c0,0,0.67,9.057-6.036,9.509c-6.759,0.456-7.63-6.69-7.808-8.727L180.479,254.489z"/>
			<path style="fill:#2020A4;" d="M177.471,333.07c-29.022,29.195-31.907,18.496-37.014,33.447s-4.118,21.774-6.424,25.775
				c-2.306,4.001-6.762,3.342-5.687,7.79c1.075,4.447,2.557,5.271,1.24,6.589c-1.318,1.318-4.612,0.824-4.942,3.459
				c-0.329,2.635,1.483,4.283,0,6.095c-1.482,1.812-5.216,9.504-5.216,9.504s2.583,1.657,5.875,1.252
				c5.765-0.709,15.672-42.122,17.13-45.912c1.458-3.79,6.418-16.071,18.198-29.226C172.412,338.689,177.471,333.07,177.471,333.07z
				"/>
			<path style="fill:#2020A4;" d="M182.543,328.952l49.558,37.563c0,0-1.264,19.479,0.563,36.484
				c1.827,17.005,2.618,22.286,2.618,22.286l5.735,0.735c0,0,2.721-5.677,1.183-8.752c-1.537-3.075-2.367-11.86-1.183-14.056
				c1.183-2.196,1.452-9.444,0-11.86c-1.452-2.416,1.027-10.601,1.654-13.866c0.627-3.265,3.509-14.906-4.521-21.275
				C230.121,349.842,202.173,328.269,182.543,328.952z"/>
			<g>
				<path style="fill:#C13363;" d="M190.123,268.521c3.265,0.25,9.181,0.25,9.181,0.25s0.028,1.439-0.001,2.387
					c-0.053,1.73-0.111,3.484-0.618,5.139c-0.507,1.655-1.528,3.227-3.069,4.016c-1.54,0.79-3.634,0.606-4.764-0.705
					c-0.974-1.13-1.056-2.755-1.049-4.246c0.012-2.568,0.146-5.135,0.4-7.691"/>
			</g>
		</g>
		<g>
			<g>
				<path style="fill:#81AFFF;" d="M188.684,230.161c0,0,2.24,3.553,3.152,6.446c0.441,0.949,0.997,2.12,2.986,3.333
					c1.029,0.628,1.883,1.825,0.585,2.635c-0.423,0.264-1.174,0.353-1.356,1.185c-0.186,0.851-0.072,1.456,0,2.306
					c0.241,2.849,2.283,5.366-3.188,6.803c-3.765,0.989-8.642-2.035-11.867-4.117C175.417,246.445,172.293,237.038,188.684,230.161z
					"/>
			</g>
		</g>
		<g>
			<g>
				<path style="fill:#3835BA;" d="M190.264,240.867c0.99-0.062,0.8-1.52-0.142-1.486
					C189.091,239.419,189.311,240.927,190.264,240.867z"/>
			</g>
		</g>
		<g>
			<path style="fill:#3835BA;" d="M188.086,233.449L188.086,233.449c1.277-0.061,2.642,0.226,3.78-0.357
				c0.533-0.272,0.962-0.717,1.297-1.212c1.034-1.528,1.176-3.617,0.358-5.27c-0.818-1.654-2.564-2.808-4.406-2.913
				c-0.675-0.038-1.38,0.064-1.945,0.435c-0.565,0.371-0.461,1.168-0.853,1.719c-3.454,4.842-9.334,5.915-10.899,8.391
				c-1.297,2.052-2.072,4.523-1.697,6.922c0.354,2.265,1.674,4.242,2.577,6.349c0.417,0.973,0.753,1.994,1.347,2.87
				c0.594,0.876,1.515,1.611,2.573,1.662c1.058,0.05,2.17-0.802,2.122-1.86c-0.017-0.377-0.169-0.734-0.318-1.08
				c-0.362-0.839-0.723-1.678-1.085-2.517c-0.471-1.092-0.95-2.299-0.606-3.438c0.344-1.138,1.956-1.889,2.762-1.015
				C179.632,238.381,183.966,233.646,188.086,233.449z"/>
		</g>
		<g>
			<g>
				<path style="fill:#81AFFF;" d="M177.96,243.381L177.96,243.381c-0.575,1.49,0.032,3.336,1.364,4.216
					c1.332,0.88,3.249,0.724,4.44-0.34c0.446-0.398,0.802-0.932,0.861-1.527c0.049-0.503-0.115-1-0.276-1.479
					c-0.219-0.649-0.444-1.308-0.839-1.868C182.037,240.306,178.807,241.186,177.96,243.381z"/>
			</g>
		</g>
		<g>
			<path style="fill:#3835BA;" d="M189.46,236.577c0.177,0.435,0.305,0.89,0.379,1.353c0.009,0.055,0.016,0.114-0.008,0.164
				c-0.032,0.064-0.106,0.094-0.172,0.122c-0.462,0.194-2.155,1.09-2.617,1.159c-0.171,0.025-0.362,0.047-0.502-0.054
				c-0.085-0.062-0.137-0.16-0.172-0.259c-0.171-0.485,0.002-1.038,0.318-1.443c0.316-0.405,0.757-0.691,1.193-0.963
				c0.234-0.146,0.475-0.293,0.745-0.35c0.27-0.057,0.579-0.007,0.767,0.195"/>
		</g>
		<g>
			<path style="fill:#3835BA;" d="M195.754,249.137c-0.157-0.434-0.446-1.5-0.856-1.711c-0.436-0.224-1.152,0.982-2.148,0.786
				c-0.54-0.106-1.209-0.374-1.243-1.419c-0.015-0.439,0.165-0.938,0.559-1.132c0.611-0.301,1.446,0.38,1.979-0.043
				c0.228-0.181,0.29-0.496,0.333-0.783c0.038-0.253,0.064-0.537-0.092-0.738c-0.227-0.291-0.675-0.231-1.033-0.142
				c-0.444,0.11-0.888,0.22-1.331,0.329c-0.402,0.1-0.821,0.207-1.133,0.479c-0.351,0.306-0.515,0.777-0.573,1.239
				c-0.058,0.462-0.066,0.929-0.054,1.395c0.021,0.772-0.739,1.103-1.014,1.086c-1.244-0.073-2.585-0.184-3.534-0.992
				c-0.675-0.575-0.985-1.373-1.324-2.164c-0.335-0.782-1.163-0.433-1.42,0.29v0c-0.124,0.348-0.121,0.727-0.104,1.096
				c0.131,2.752,1.173,5.612,3.409,7.222c1.44,1.036,3.301,1.467,5.05,1.168c1.074-0.184,2.086-0.626,3.055-1.123
				c0.58-0.297,1.176-0.641,1.511-1.2c0.267-0.446,0.337-0.982,0.338-1.501C196.129,250.55,196.001,249.822,195.754,249.137z"/>
		</g>
		<path style="fill:#3835BA;" d="M193.745,243.046c0.139,0.016-0.508-0.165-0.453-1.071
			C193.292,241.976,192.811,242.936,193.745,243.046z"/>
	</g>
	<g>
		<g>
			<g>
				<path style="fill:#2020A4;" d="M418.258,433.166c0,0,2.236,0.395,3.157,1.022c0.92,0.626,1.506,2.954,0.919,3.9
					c-0.562,0.906-1.813,1.014-2.879,1.023c-3.091,0.027-9.253,0.055-12.344,0.083c-1.513,0.013-3.162-0.019-4.332-0.978
					c-0.875-0.718-1.312-1.827-1.714-2.886c-0.954-2.515-3.389-6.295-4.344-8.81c-0.461-1.215-0.927-2.455-0.989-3.753
					c-0.061-1.298,1.829-1.423,2.846-2.231c3.816-3.036,6.331,0.772,7.063,3.103C407.88,430.772,414.167,432.247,418.258,433.166z"
					/>
			</g>
			<g>
				<path style="fill:#2020A4;" d="M282.083,419.907c0.124,3.836,0.248,7.672,0.371,11.508c0.027,0.839,0.038,1.738-0.425,2.438
					c-0.693,1.048-2.133,1.228-3.388,1.294c-4.55,0.24-9.109,0.316-13.665,0.228c-0.799-0.015-1.686-0.072-2.241-0.647
					c-0.671-0.695-0.54-1.866-0.038-2.692c2.236-3.678,8.964-1.962,11.158-5.665c1.166-1.969,0.511-4.815,2.145-6.418
					c1.438-1.411,3.788-1.03,5.745-0.55"/>
			</g>
			<g>
				<path style="fill:#8DCFFF;" d="M274.486,359.303c-3.656,8.638-2.282,38.763-1.658,57.016c0.082,2.39,2.016,4.297,4.407,4.346
					c1.768,0.037,3.584,0.055,5.689,0.114c2.247,0.063,4.121-1.729,4.14-3.976c0.068-8.089,1.255-15.345,1.479-24.51
					c0.425-17.434,3.857-27.87,8.097-30.905c2.076-1.486,28.925-18.959,38.73-31.689c9.067,14.308,21.383,26.544,35.75,35.517
					c1.531,0.957,3.123,1.909,4.226,3.339c0.931,1.208,1.449,2.675,1.945,4.116c4.622,13.425,9.456,26.877,12.091,40.829
					c1.948,10.316,5.798,14.276,11.577,12.798c4.189-1.071,6.791-1.441,5.69-6.038c-0.635-2.652-5.129-28.415-6.585-33.05
					c-5.531-17.61-13.906-35.994-26.305-49.668c-10.103-11.142-24.291-29.696-25.58-30.661c-2.59-1.94-1.508-0.784-4.739-0.971
					c-5.234-0.304-10.468-0.607-15.702-0.911c-2.945-0.171-6.012-0.068-8.376,1.88c-2.219,1.828-3.385,4.701-5.424,6.756
					C309.366,318.243,276.422,354.73,274.486,359.303z"/>
			</g>
			<path style="fill:#1E74FD;" d="M311.596,324.534c0,0-2.237-2.585-9.131,5.541c-6.894,8.126-22.268,23.953-23.806,31.516
				c-1.537,7.563-1.324,32.836-1.541,39.205c-0.216,6.369,0.907,5.93,0.455,10.103s-1.599,4.393-0.586,5.93
				c1.013,1.537,0.247,3.836,0.247,3.836s-5.415,2.99-5.184-8.888c0.231-11.878-2.176-43.232,2.436-52.474
				c4.612-9.242,34.148-39.992,34.148-39.992L311.596,324.534z"/>
			<path style="fill:#1E74FD;" d="M350.168,308.554c0,0-26.704,22.803-41.367,14.862l4.594-8.496l6.225-10.694l15.73-5.957
				L350.168,308.554z"/>
			<g>
				<path style="fill:#2020A4;" d="M314.722,269.108c-1.128,5.974-1.223,12.131-2.715,18.025
					c-2.58,10.191-9.228,19.177-10.629,29.596c-0.063,0.47-0.113,0.963,0.049,1.408c0.624,1.712,3.426,1.201,4.615,2.581
					c0.524,0.608,0.881,1.645,1.678,1.547c0.438-0.054,0.732-0.462,0.967-0.835c10.26-16.215,16.799-34.769,18.972-53.834v0
					c0.277-2.43,0.485-5.186-0.722-7.417c-0.746-1.379-3.665-5.151-5.422-4.911c-2,0.273-3.802,4.621-4.508,6.219
					C315.932,263.918,315.214,266.501,314.722,269.108z"/>
			</g>
			<g>
				<path style="fill:#3832B6;" d="M337.685,253.698c0,0,6.927-0.443,8.476-0.223c2.305,0.327,0.601,1.392,1.637,3.477
					c3.512,7.071,3.188,15.381,2.42,23.239c-0.768,7.858-1.882,15.936,0.267,23.532c0.466,1.646,0.972,3.706-0.317,4.83
					c-0.613,0.534-1.468,0.667-2.274,0.774c-8.666,1.151-17.393,1.837-26.133,2.054c-1.245,0.031-2.621,0.006-3.546-0.827
					c-1.387-1.248-0.973-3.473-0.511-5.281c2.773-10.835,3.208-22.261,1.266-33.275c-0.461-2.613-1.055-5.22-1.109-7.873
					c-0.054-2.653,0.624-5.311,2.075-7.533C323.19,251.612,331.664,255.376,337.685,253.698z"/>
			</g>
			<g>
				<path style="fill:#FFFFFF;" d="M341.225,274.866l-0.121-0.306c-9.393,3.706-21.621-0.611-21.743-0.655l-0.111,0.31
					c0.086,0.031,6.153,2.174,13.046,2.174C335.255,276.388,338.368,275.993,341.225,274.866z"/>
				<path style="fill:#FFFFFF;" d="M319.763,276.902l-0.143,0.297c0.07,0.034,5.095,2.405,12.238,2.405
					c2.843,0,6.022-0.376,9.357-1.425l-0.099-0.314C329.533,281.508,319.859,276.949,319.763,276.902z"/>
				<path style="fill:#FFFFFF;" d="M320.108,281l-0.151,0.293c0.066,0.034,4.807,2.431,11.566,2.431
					c2.748,0,5.831-0.396,9.067-1.509l-0.107-0.311C329.424,285.704,320.201,281.047,320.108,281z"/>
				<path style="fill:#FFFFFF;" d="M320.137,284.402l-0.209,0.254c0.053,0.044,3.879,3.109,10.423,3.109
					c2.642,0,5.728-0.5,9.187-1.901l-0.124-0.306C327.579,290.352,320.21,284.461,320.137,284.402z"/>
			</g>
			<path style="fill:#2020A4;" d="M341.573,264.137c0,0,0.499,21.469-5.529,28.178c-12.471,13.882-17.719,17.676-16.906,18.313
				c1.523,1.194,4.852,1.862,17.211,0.048c18.96-2.783,11.511-16.765,11.511-16.765l-0.92-28.348L341.573,264.137z"/>
			<g>
				<path style="fill:#FFFFFF;" d="M318.445,314.536c-0.902,0.767-2.263,0.441-3.388,0.073c-1.125-0.368-2.482-0.701-3.391,0.056
					c-0.874,0.728-0.716,2.338,0.282,2.883c-1.331,1.141-3.687,0.434-4.857,1.74c-0.902,1.008-0.46,2.737,0.614,3.559
					c1.074,0.821,2.538,0.921,3.881,0.769c2.397-0.272,4.709-1.255,6.567-2.793c0.931-0.77,1.785-1.746,1.993-2.936
					c0.208-1.19-0.459-2.591-1.642-2.834"/>
			</g>
			<g>
				<path style="fill:#3832B6;" d="M348.173,253.753c4.04,1.019,5.276,4.178,6.268,8.225c1.8,7.339,1.461,15.059,0.19,22.508
					c-0.666,3.904-1.607,7.827-3.563,11.271c-3.134,5.517-8.549,9.291-13.786,12.875c-3.569,2.443-13.967,10.713-15.814,11.788
					c-2.201,1.279-4.735-2.765-5.732-4.655c-1.14-2.161,0.201-2.814,1.084-3.9c0.883-1.086,2.069-1.875,3.22-2.672
					c4.435-3.072,8.607-6.503,12.774-9.93c2.06-1.694,4.157-3.43,5.576-5.688c1.564-2.49,2.194-5.436,2.797-8.314
					c1.252-5.976,2.51-12.103,1.626-18.145c-0.159-1.086-0.428-2.238-1.239-2.978c-0.979-0.894-2.436-0.926-3.725-1.233
					c-2.367-0.564-9.315-7.505-5.096-8.997c0.854-0.302,2.302,0.189,3.224,0.14c1.231-0.066,2.436-0.384,3.627-0.679
					C342.079,252.755,348.173,253.753,348.173,253.753z"/>
			</g>
			<g>
				<path style="fill:#FFFFFF;" d="M330.632,254.417L330.632,254.417c0.768,1.102,2.213,1.945,3.549,1.807
					c1.258-0.13,2.67-0.25,3.889-0.584c0.708-0.194,1.509-0.443,1.977-1.008c0.635-0.768,0.5-2.744,0.424-3.737
					c-0.08-1.048,0.733-7.375,0.066-8.188c-0.73-0.891-2.878,4.012-4.027,3.938c-1.811-0.117-4.463-0.085-5.375,1.661
					C330.448,249.621,330.632,254.417,330.632,254.417z"/>
			</g>
			<path style="fill:#E5E5E5;" d="M330.699,250.491c0,0,2.491,2.164,4.794,0.517c2.303-1.647,3.703-1.94,3.538-0.517
				c-0.165,1.423,0.013,3.846,0.013,3.846l1.758-0.808v-10.345L330.699,250.491z"/>
			<path style="fill:#2020A4;" d="M340.801,253.171c0,0-1.671,2.235-6.484,2.299c-3.708,0.05-3.72-1.413-3.708-1.412
				c0.012,0.001-1.225-0.073-1.225-0.073s-0.698,3.824,4.238,4.106c6.726,0.384,9.417-4.909,9.417-4.909L340.801,253.171z"/>
			<path style="fill:#1E74FD;" d="M335.37,329.699c0,0,24.772,23.911,33.338,29.605c8.566,5.693,14.77,9.207,17.159,19.969
				c2.388,10.762,5.463,16.472,5.244,22.402c-0.22,5.93-1.299,3.514,1.547,7.687c2.846,4.173,3.505,3.294,2.626,6.809
				c-0.879,3.514,2.821,10.812,2.821,10.812h-3.919c0,0-4.97-9.138-7.138-18.06c-2.168-8.922-9.224-37.227-11.702-40.367
				C372.985,365.564,346.741,354.347,335.37,329.699z"/>
		</g>
		<g>
			<g>
				<path style="fill:#FFFFFF;" d="M326.852,227.95c0,0-1.24,4.013-1.37,7.044c-0.18,1.031-0.412,2.306-2.018,3.995
					c-0.831,0.873-1.344,2.251,0.12,2.697c0.477,0.145,1.486,0.062,1.457,0.913c-0.058,1.719-1.906,8.29,3.595,7.876
					c6.479-0.488,8.177-2.102,11.547-5.809C343.048,241.516,344.466,230.335,326.852,227.95z"/>
			</g>
		</g>
		<g>
			<path style="fill:#2020A4;" d="M327.185,231.077c-3.523,1.326-4.692-0.864-5.121-2.389c-0.95-3.377,2.82-5.597,3.593-6.112
				c0.772-0.515,1.779-0.77,2.643-0.43c0.812,0.319,1.346,1.078,1.917,1.738c0.57,0.66,1.338,1.294,2.206,1.206
				c0.535-0.054,0.999-0.377,1.466-0.644c1.508-0.861,3.495-1.178,4.941-0.216c1.111,0.738,1.697,2.187,1.413,3.49
				c-0.148,0.68-0.491,1.449-0.082,2.012c0.345,0.475,1.027,0.5,1.613,0.533c1.419,0.079,2.885,0.505,3.874,1.526
				c0.988,1.021,1.34,2.732,0.526,3.897c-0.409,0.586-1.045,0.968-1.543,1.48c-0.953,0.978-1.354,2.372-1.504,3.729
				c-0.151,1.357-0.086,2.733-0.276,4.086c-0.048,0.338-0.121,0.694-0.355,0.943c-0.181,0.193-0.435,0.296-0.685,0.381
				c-1.079,0.369-2.235,0.513-3.372,0.419c-0.153-0.013-0.314-0.033-0.437-0.124c-0.144-0.107-0.207-0.291-0.247-0.466
				c-0.34-1.483,0.392-2.981,0.573-4.492c0.055-0.458,0.05-0.955-0.203-1.341c-0.631-0.962-2.348-0.672-2.924-1.668
				c-0.294-0.508-0.152-1.157,0.088-1.692c0.241-0.536,0.576-1.043,0.665-1.623c0.156-1.019-0.512-2.021-1.383-2.572
				C333.699,232.195,331.124,229.594,327.185,231.077z"/>
		</g>
		<g>
			<path style="fill:#2020A4;" d="M328.271,237.885c-0.972,0.197-1.168-1.26-0.248-1.471
				C329.027,236.182,329.207,237.695,328.271,237.885z"/>
		</g>
		<g>
			<path style="fill:#FFFFFF;" d="M340.641,237.932L340.641,237.932c0.942,1.289,0.835,3.23-0.223,4.426
				c-1.058,1.196-2.95,1.543-4.376,0.825c-0.534-0.269-1.016-0.691-1.227-1.251c-0.178-0.473-0.149-0.995-0.117-1.5
				c0.043-0.684,0.089-1.379,0.326-2.021C335.905,236.021,339.253,236.032,340.641,237.932z"/>
		</g>
		<g>
			<path style="fill:#2020A4;" d="M327.186,233.43c0.007,0.291,0.134,0.597,0.389,0.74c0.159,0.089,0.348,0.106,0.531,0.119
				c0.559,0.039,1.119,0.059,1.679,0.061c0.628,0.002,1.317,0.001,1.796,0.406c0.26,0.219,0.424,0.535,0.682,0.756
				c0.258,0.222,0.693,0.316,0.916,0.059c0.265-0.306,0.003-0.774-0.276-1.067c-1.302-1.362-3.103-2.237-4.979-2.418
				c-0.163-0.016-0.341-0.023-0.476,0.07l0,0C327.251,232.29,327.18,233.206,327.186,233.43z"/>
		</g>
		<g>
			<path style="fill:#2020A4;" d="M324.403,242.999c-0.028,0.342,0.15,0.7,0.453,0.861c0.181,0.096,0.393,0.121,0.599,0.115
				c0.384-0.011,0.758-0.121,1.134-0.2c0.376-0.079,0.774-0.125,1.141-0.011c0.367,0.115,0.695,0.427,0.722,0.81
				c0.257-0.51,0.09-1.162-0.295-1.585c-0.384-0.423-0.945-0.646-1.507-0.754l0,0C325.842,242.082,324.5,241.796,324.403,242.999z"
				/>
		</g>
		<g>
			<path style="fill:#2020A4;" d="M325.904,245.965L325.904,245.965c0.051,0.003,0.104,0.007,0.147,0.033
				c0.068,0.041,0.095,0.125,0.112,0.203c0.094,0.435,0.016,0.929-0.295,1.247c-0.311,0.318-0.878,0.389-1.202,0.084
				c-0.249-0.236-0.3-0.611-0.298-0.954c0.001-0.192,0.018-0.395,0.129-0.551C324.729,245.698,325.568,245.945,325.904,245.965z"/>
		</g>
		<path style="fill:#3835BA;" d="M325.856,240.591c0,0,0.345,0.791-0.464,1.115C325.392,241.707,326.713,241.665,325.856,240.591z"
			/>
	</g>
	<g>
		<g>
			<path style="fill:#363AF3;" d="M255.52,82.355c1.915-5.387-1.394-11.317-7.098-12.233c-5.756-0.923-10.561,3.697-10.56,9.371
				c0.001,3.217,5.001,3.223,5,0c-0.002-6.755,10.167-5.02,7.837,1.532C249.618,84.063,254.448,85.37,255.52,82.355L255.52,82.355z"
				/>
		</g>
		<g>
			<path style="fill:#FFFFFF;" d="M318.802,88.218l-37.934,0.554l0,0c0,1.672-1.355,3.027-3.027,3.027h-2.724
				c-1.672,0-3.027-1.355-3.027-3.027v-0.605l-47.064,0.151c0,0-5.599,18.614-20.884,18.614S184.47,90.436,184.47,79.54
				c0-10.896,8.777-22.851,22.246-21.943c13.469,0.908,17.403,18.688,17.403,18.688h47.67v-0.679c0-1.914,1.551-3.465,3.465-3.465
				h2.452c1.914,0,3.465,1.551,3.465,3.465l0,0c0,0,1.967,0.908,3.329-0.303c1.362-1.211,4.237-3.935,5.599-3.935l0.073-2.765
				c0.043-1.636-1.271-2.985-2.908-2.985h-0.343V61.28c0-2.061,1.671-3.732,3.732-3.732h6.559v13.063h6.659V57.548h8.475v9.583
				l-0.943,0.754c-1.086,0.869-1.122,2.508-0.076,3.424l0.42,0.367c1.556,1.362,3.554,2.113,5.623,2.113h1.38
				c1.979,0,3.584,1.604,3.584,3.584v7.261C322.334,86.593,320.761,88.189,318.802,88.218z"/>
			<ellipse style="fill:#3690FF;" cx="205.373" cy="81.432" rx="10.12" ry="13.998"/>
			<path style="fill:#E5E5E5;" d="M184.47,80.429c0,0,2.27-4.067,5.448,3.651c3.178,7.718,5.032,15.89,15.455,15.436
				c10.423-0.454,11.18-16.942,15.568-16.87c4.389,0.072,52.21-0.406,52.21-0.406v2.623h5.902c0,0-0.454-9.412,2.119-9.257
				c2.573,0.154,3.329-0.303,3.329-0.303s-3.178,3.632-3.178,6.129s35.715,1.214,35.715,1.214s5.297-0.663,5.297-4.014v6.002
				c0,0-0.555,3.583-3.531,3.583c-2.977,0-37.934,0.554-37.934,0.554s-0.303,3.027-3.027,3.027s-2.724,0-2.724,0
				s-3.027,0.303-3.027-3.632l-47.064,0.151c0,0-5.902,18.311-20.884,18.614C189.161,107.234,185.378,91.76,184.47,80.429z"/>
		</g>
		<path style="fill:#363AF3;" d="M237.562,88.277c-0.09,6.794,5.017,11.653,10.965,9.353c5.691-2.2,7.435-8.859,7.981-12.467
			c0.25-1.322,0.402-2.653,0.429-3.946c0.183-2.502,0.241-4.944,0.381-7.06c1.626-24.607,1.395-49.298-0.548-73.879
			c-0.252-3.186-5.254-3.214-5,0c1.278,16.169,1.839,32.386,1.581,48.605c-0.122,7.653-0.418,15.303-0.887,22.943
			c-0.844-0.375-1.818-0.615-2.948-0.679c-3.215-0.183-3.204,4.818,0,5c1.682,0.096,2.253,4.43,2.16,5.624
			c-0.098,1.261-0.235,2.547-0.454,3.789c-0.283,1.603-0.686,3.124-1.403,4.516c-0.12,0.195-0.238,0.392-0.376,0.579
			c-1.654,2.239-5.912,4.127-6.659-0.965c-0.059-0.399,0.041-1.098-0.097-1.43L237.562,88.277z"/>
		<g>
			<path style="fill:#F9D521;" d="M329.81,58.311c4.131-4.037,8.262-8.073,12.392-12.11c2.305-2.253-1.231-5.787-3.535-3.535
				c-4.131,4.037-8.262,8.074-12.392,12.11C323.969,57.028,327.506,60.562,329.81,58.311L329.81,58.311z"/>
		</g>
		<g>
			<path style="fill:#F9D521;" d="M334.519,69.651c6.994-0.881,13.988-1.762,20.982-2.643c3.15-0.397,3.189-5.402,0-5
				c-6.994,0.881-13.988,1.762-20.982,2.643C331.369,65.048,331.33,70.053,334.519,69.651L334.519,69.651z"/>
		</g>
		<g>
			<path style="fill:#F9D521;" d="M334.148,79.361c5.181,2.3,10.363,4.6,15.544,6.9c2.915,1.294,5.462-3.013,2.524-4.317
				c-5.181-2.3-10.363-4.6-15.544-6.9C333.757,73.75,331.21,78.057,334.148,79.361L334.148,79.361z"/>
		</g>
		<g>
			<path style="fill:#F9D521;" d="M176.477,54.775c-4.131-4.037-8.262-8.074-12.392-12.11c-2.303-2.251-5.842,1.282-3.535,3.535
				c4.131,4.037,8.261,8.074,12.392,12.11C175.244,60.561,178.783,57.029,176.477,54.775L176.477,54.775z"/>
		</g>
		<g>
			<path style="fill:#F9D521;" d="M168.232,64.651c-6.994-0.881-13.988-1.762-20.982-2.643c-3.184-0.401-3.155,4.603,0,5
				c6.994,0.881,13.988,1.762,20.982,2.643C171.416,70.052,171.387,65.049,168.232,64.651L168.232,64.651z"/>
		</g>
		<g>
			<path style="fill:#F9D521;" d="M166.079,75.044c-5.182,2.3-10.363,4.6-15.544,6.9c-2.935,1.303-0.394,5.613,2.524,4.317
				c5.182-2.3,10.363-4.6,15.544-6.9C171.538,78.058,168.997,73.748,166.079,75.044L166.079,75.044z"/>
		</g>
	</g>
	<g>
		<path style="fill:#363AF3;" d="M80.423,439.195H46.458c-10.403,0-18.836-8.433-18.836-18.836v-20.13
			c0-10.403,8.433-18.836,18.836-18.836h33.965c10.403,0,18.836,8.433,18.836,18.836v20.13
			C99.259,430.762,90.826,439.195,80.423,439.195z"/>
		<path style="fill:#9FCFFF;" d="M71.032,407.028c0-4.478-3.877-8.05-8.457-7.544c-3.522,0.389-6.364,3.288-6.693,6.816
			c-0.239,2.561,0.797,4.888,2.546,6.426c0.807,0.71,1.314,1.699,1.314,2.774v4.376c0,1.828,1.482,3.309,3.309,3.309h1.363
			c1.828,0,3.309-1.482,3.309-3.309v-4.918c0-0.935,0.352-1.847,1.021-2.501C70.156,411.079,71.032,409.156,71.032,407.028z"/>
		<g>
			<path style="fill:#363AF3;" d="M86.591,378.615h-9.13v-10.923c0-7.731-6.29-14.021-14.021-14.021
				c-7.731,0-14.021,6.29-14.021,14.021v10.923h-9.13v-10.923c0-12.765,10.385-23.151,23.151-23.151
				c12.765,0,23.151,10.385,23.151,23.151V378.615z"/>
		</g>
	</g>
	<text transform="matrix(1 0 0 1 386.7012 74.8037)"><tspan x="0" y="0" style="fill:#363AF3; font-family:'BebasNeue'; font-size:40.3555px;">TEAM</tspan><tspan x="0" y="32.875" style="fill:#363AF3; font-family:'BebasNeue'; font-size:40.3555px;">WORK</tspan></text>
</g>
<g id="DESIGNED_BY_FREEPIK">
	<g>
		<g>
			<g>
				<path style="fill:#4035C0;" d="M176.703,462.874c-0.14-0.17-0.34-0.25-0.61-0.25c-0.27,0-0.47,0.09-0.62,0.27
					c-0.14,0.19-0.21,0.46-0.21,0.82v2.6c-0.33-0.359-0.67-0.63-1.02-0.809c-0.35-0.17-0.77-0.26-1.28-0.26
					c-0.87,0-1.58,0.31-2.12,0.92c-0.53,0.62-0.8,1.47-0.8,2.57c0,0.52,0.07,1,0.2,1.449c0.14,0.45,0.33,0.841,0.6,1.17
					c0.26,0.33,0.57,0.58,0.93,0.761c0.35,0.18,0.74,0.27,1.16,0.27c0.32,0,0.62-0.05,0.88-0.14c0.27-0.08,0.52-0.21,0.75-0.38
					c0.23-0.17,0.46-0.391,0.7-0.66v0.17c0,0.32,0.08,0.57,0.23,0.75c0.16,0.17,0.36,0.26,0.6,0.26c0.24,0,0.44-0.09,0.6-0.25
					c0.15-0.17,0.23-0.42,0.23-0.76v-7.75C176.923,463.293,176.853,463.043,176.703,462.874z M174.933,470.043
					c-0.15,0.33-0.35,0.58-0.61,0.74c-0.25,0.16-0.54,0.24-0.84,0.24c-0.31,0-0.59-0.091-0.85-0.261c-0.26-0.17-0.46-0.42-0.61-0.75
					c-0.14-0.34-0.22-0.739-0.22-1.22c0-0.45,0.07-0.85,0.21-1.19c0.14-0.34,0.34-0.6,0.59-0.779c0.25-0.181,0.54-0.28,0.86-0.28
					c0.31,0,0.6,0.09,0.86,0.27c0.26,0.181,0.46,0.441,0.61,0.771c0.16,0.34,0.23,0.74,0.23,1.21
					C175.163,469.293,175.093,469.704,174.933,470.043z"/>
				<path style="fill:#4035C0;" d="M183.753,469.963c-0.17,0-0.3,0.04-0.39,0.12c-0.22,0.2-0.4,0.37-0.53,0.49
					c-0.14,0.12-0.29,0.23-0.45,0.34c-0.17,0.1-0.33,0.18-0.51,0.229c-0.17,0.051-0.36,0.07-0.57,0.07c-0.32,0-0.6-0.08-0.86-0.23
					c-0.26-0.15-0.47-0.381-0.63-0.69c-0.16-0.3-0.24-0.66-0.24-1.05h3.44c0.46,0,0.81-0.07,1.07-0.2c0.25-0.13,0.38-0.42,0.38-0.86
					c0-0.479-0.13-0.939-0.37-1.4c-0.24-0.46-0.61-0.84-1.11-1.13c-0.49-0.29-1.08-0.431-1.76-0.431c-0.53,0-1.01,0.08-1.44,0.25
					c-0.44,0.17-0.8,0.42-1.1,0.73c-0.29,0.32-0.52,0.7-0.67,1.149c-0.16,0.44-0.24,0.921-0.24,1.44c0,1.1,0.32,1.98,0.94,2.62
					c0.63,0.64,1.51,0.97,2.64,0.97c0.49,0,0.93-0.07,1.31-0.2c0.38-0.13,0.69-0.29,0.94-0.479c0.25-0.2,0.44-0.4,0.57-0.61
					c0.12-0.22,0.18-0.399,0.18-0.56c0-0.181-0.05-0.32-0.16-0.42C184.074,470.013,183.933,469.963,183.753,469.963z
					 M180.083,466.893c0.28-0.3,0.64-0.449,1.08-0.449c0.46,0,0.83,0.149,1.11,0.449c0.28,0.301,0.44,0.75,0.49,1.351h-3.19
					C179.633,467.654,179.803,467.204,180.083,466.893z"/>
				<path style="fill:#4035C0;" d="M190.753,469.223c-0.18-0.25-0.44-0.47-0.79-0.649c-0.34-0.19-0.79-0.351-1.33-0.48
					c-0.46-0.109-0.82-0.21-1.08-0.28c-0.27-0.079-0.47-0.18-0.63-0.3c-0.15-0.109-0.23-0.27-0.23-0.45c0-0.199,0.1-0.369,0.31-0.51
					c0.22-0.13,0.48-0.2,0.8-0.2c0.31,0,0.55,0.051,0.73,0.16c0.18,0.101,0.34,0.24,0.47,0.41c0.16,0.2,0.31,0.36,0.43,0.46
					c0.13,0.1,0.28,0.16,0.46,0.16c0.25,0,0.45-0.07,0.58-0.2c0.14-0.13,0.2-0.29,0.2-0.49c0-0.189-0.06-0.38-0.19-0.569
					c-0.12-0.19-0.31-0.37-0.55-0.53c-0.24-0.16-0.54-0.28-0.91-0.38c-0.36-0.09-0.77-0.14-1.22-0.14c-0.58,0-1.08,0.09-1.49,0.279
					c-0.41,0.19-0.72,0.44-0.93,0.75c-0.21,0.311-0.309,0.65-0.309,1c0,0.391,0.11,0.73,0.34,1c0.23,0.27,0.53,0.49,0.91,0.65
					c0.38,0.16,0.87,0.32,1.48,0.47c0.53,0.13,0.92,0.271,1.15,0.41c0.24,0.14,0.35,0.37,0.35,0.67c0,0.21-0.11,0.38-0.33,0.54
					c-0.23,0.16-0.52,0.24-0.87,0.24c-0.43,0-0.78-0.08-1.03-0.23c-0.25-0.16-0.46-0.39-0.65-0.71c-0.08-0.16-0.18-0.29-0.28-0.38
					s-0.24-0.13-0.42-0.13c-0.21,0-0.39,0.07-0.52,0.2c-0.14,0.14-0.21,0.31-0.21,0.5c0,0.29,0.11,0.58,0.32,0.87
					c0.22,0.29,0.55,0.529,1,0.729c0.45,0.19,0.99,0.29,1.62,0.29c0.66,0,1.22-0.09,1.68-0.27c0.47-0.181,0.82-0.44,1.05-0.79
					c0.24-0.34,0.35-0.761,0.35-1.24C191.013,469.763,190.933,469.473,190.753,469.223z"/>
				<path style="fill:#4035C0;" d="M193.433,465.504c-0.17-0.18-0.38-0.27-0.64-0.27c-0.26,0-0.47,0.09-0.63,0.27
					c-0.16,0.17-0.24,0.43-0.24,0.78v5.029c0,0.341,0.08,0.601,0.24,0.79c0.16,0.181,0.37,0.28,0.63,0.28
					c0.26,0,0.47-0.09,0.64-0.27c0.17-0.181,0.25-0.45,0.25-0.801v-5.079C193.683,465.923,193.603,465.673,193.433,465.504z
					 M193.413,462.914c-0.17-0.14-0.37-0.22-0.6-0.22c-0.24,0-0.44,0.08-0.62,0.25c-0.18,0.159-0.27,0.359-0.27,0.609
					c0,0.28,0.09,0.49,0.26,0.641c0.18,0.149,0.39,0.22,0.63,0.22c0.24,0,0.44-0.07,0.61-0.22c0.17-0.16,0.26-0.37,0.26-0.641
					C193.683,463.274,193.593,463.063,193.413,462.914z"/>
				<path style="fill:#4035C0;" d="M201.213,465.563c-0.11-0.22-0.34-0.329-0.68-0.329c-0.23,0-0.43,0.09-0.58,0.25
					c-0.15,0.17-0.22,0.409-0.22,0.71v0.239c-0.31-0.409-0.65-0.71-1.02-0.9c-0.36-0.19-0.79-0.29-1.29-0.29
					c-0.42,0-0.8,0.08-1.15,0.229c-0.35,0.141-0.65,0.36-0.92,0.66c-0.26,0.29-0.47,0.65-0.61,1.07c-0.15,0.43-0.22,0.899-0.22,1.43
					c0,0.71,0.12,1.33,0.36,1.87c0.23,0.54,0.57,0.96,1.01,1.26c0.44,0.311,0.95,0.46,1.54,0.46c0.49,0,0.91-0.1,1.27-0.3
					c0.35-0.2,0.66-0.49,0.93-0.86c-0.01,0.57-0.02,0.99-0.04,1.25c-0.01,0.261-0.07,0.5-0.17,0.73c-0.1,0.23-0.28,0.4-0.53,0.53
					c-0.25,0.13-0.6,0.189-1.06,0.189c-0.22,0-0.42-0.02-0.59-0.06c-0.17-0.04-0.32-0.101-0.44-0.19c-0.12-0.08-0.24-0.18-0.34-0.3
					c-0.1-0.12-0.2-0.24-0.29-0.35c-0.19-0.23-0.42-0.34-0.68-0.34c-0.2,0-0.38,0.069-0.52,0.199c-0.15,0.141-0.22,0.31-0.22,0.53
					c0,0.28,0.13,0.55,0.38,0.82c0.26,0.27,0.63,0.489,1.1,0.66c0.48,0.17,1.02,0.25,1.63,0.25c0.66,0,1.21-0.06,1.65-0.2
					c0.45-0.13,0.81-0.33,1.08-0.61c0.28-0.27,0.48-0.62,0.6-1.04c0.12-0.42,0.19-0.92,0.19-1.51v-5.1
					C201.383,466.103,201.324,465.784,201.213,465.563z M199.423,469.973c-0.16,0.31-0.37,0.551-0.63,0.7
					c-0.26,0.16-0.54,0.24-0.83,0.24c-0.49,0-0.9-0.18-1.21-0.55c-0.31-0.36-0.46-0.9-0.46-1.61c0-0.71,0.15-1.25,0.45-1.63
					c0.3-0.38,0.7-0.58,1.21-0.58c0.51,0,0.93,0.2,1.24,0.6c0.32,0.4,0.48,0.96,0.48,1.681
					C199.673,469.274,199.583,469.654,199.423,469.973z"/>
				<path style="fill:#4035C0;" d="M208.733,467.084c-0.03-0.24-0.11-0.48-0.22-0.69c-0.18-0.369-0.45-0.649-0.82-0.859
					c-0.36-0.2-0.78-0.3-1.24-0.3c-0.48,0-0.9,0.1-1.27,0.29c-0.1,0.05-0.19,0.109-0.29,0.18c-0.25,0.18-0.49,0.42-0.72,0.72v-0.22
					c0-0.21-0.04-0.391-0.11-0.53c-0.08-0.149-0.18-0.26-0.3-0.33c-0.13-0.069-0.27-0.109-0.42-0.109c-0.25,0-0.45,0.079-0.6,0.25
					c-0.15,0.159-0.22,0.409-0.22,0.75v5.079c0,0.341,0.08,0.601,0.25,0.79c0.16,0.181,0.37,0.28,0.62,0.28
					c0.26,0,0.48-0.09,0.64-0.27c0.17-0.181,0.25-0.45,0.25-0.801v-2.199c0-0.721,0.04-1.21,0.13-1.471
					c0.12-0.33,0.31-0.58,0.56-0.77c0.26-0.19,0.55-0.28,0.86-0.28c0.48,0,0.8,0.15,0.96,0.46c0.16,0.31,0.24,0.75,0.24,1.33v2.93
					c0,0.341,0.09,0.601,0.25,0.79c0.16,0.181,0.37,0.28,0.64,0.28c0.25,0,0.46-0.09,0.62-0.27c0.17-0.181,0.25-0.45,0.25-0.801
					v-3.27C208.793,467.654,208.773,467.334,208.733,467.084z"/>
				<path style="fill:#4035C0;" d="M215.603,469.963c-0.17,0-0.29,0.04-0.38,0.12c-0.22,0.2-0.4,0.37-0.54,0.49
					c-0.14,0.12-0.29,0.23-0.45,0.34c-0.16,0.1-0.33,0.18-0.5,0.229c-0.17,0.051-0.35,0.07-0.55,0.07h-0.01c-0.01,0-0.01,0-0.02,0
					c-0.31,0-0.6-0.08-0.86-0.23c-0.26-0.15-0.47-0.381-0.62-0.69c-0.03-0.06-0.06-0.11-0.08-0.17v-0.01
					c-0.11-0.261-0.16-0.56-0.17-0.87h3.44c0.46,0,0.82-0.07,1.07-0.2c0.25-0.13,0.38-0.42,0.38-0.86c0-0.479-0.12-0.939-0.37-1.4
					c-0.24-0.46-0.61-0.84-1.1-1.13c-0.49-0.29-1.08-0.431-1.77-0.431c-0.53,0-1.01,0.08-1.441,0.25c-0.43,0.17-0.8,0.42-1.09,0.73
					c-0.3,0.32-0.53,0.7-0.68,1.149c-0.15,0.44-0.23,0.921-0.23,1.44c0,1.1,0.31,1.98,0.941,2.62c0.62,0.64,1.5,0.97,2.63,0.97
					c0.49,0,0.93-0.07,1.31-0.2c0.01,0,0.03-0.01,0.04-0.01c0.36-0.13,0.66-0.29,0.91-0.47c0.25-0.2,0.43-0.4,0.56-0.61
					c0.12-0.22,0.19-0.399,0.19-0.56c0-0.181-0.06-0.32-0.17-0.42C215.933,470.013,215.783,469.963,215.603,469.963z
					 M211.943,466.893c0.28-0.3,0.64-0.449,1.07-0.449c0.46,0,0.83,0.149,1.11,0.449c0.29,0.301,0.45,0.75,0.49,1.351h-3.19
					C211.483,467.654,211.653,467.204,211.943,466.893z"/>
				<path style="fill:#4035C0;" d="M223.473,462.874c-0.14-0.17-0.35-0.25-0.61-0.25c-0.27,0-0.48,0.09-0.62,0.27
					c-0.14,0.19-0.22,0.46-0.22,0.82v2.6c-0.33-0.359-0.66-0.63-1.01-0.809c-0.35-0.17-0.78-0.26-1.28-0.26
					c-0.88,0-1.58,0.31-2.12,0.92c-0.54,0.62-0.81,1.47-0.81,2.57c0,0.52,0.07,1,0.21,1.449c0.13,0.45,0.33,0.841,0.59,1.17
					c0.26,0.33,0.57,0.58,0.93,0.761c0.36,0.18,0.75,0.27,1.17,0.27c0.32,0,0.61-0.05,0.88-0.14c0.27-0.08,0.52-0.21,0.75-0.38
					c0.23-0.17,0.46-0.391,0.69-0.66v0.17c0,0.32,0.08,0.57,0.24,0.75c0.16,0.17,0.35,0.26,0.6,0.26c0.24,0,0.44-0.09,0.59-0.25
					c0.16-0.17,0.24-0.42,0.24-0.76v-7.75C223.693,463.293,223.613,463.043,223.473,462.874z M221.703,470.043
					c-0.15,0.33-0.36,0.58-0.61,0.74c-0.26,0.16-0.54,0.24-0.85,0.24c-0.3,0-0.58-0.091-0.84-0.261c-0.26-0.17-0.46-0.42-0.61-0.75
					c-0.15-0.34-0.22-0.739-0.22-1.22c0-0.45,0.07-0.85,0.21-1.19c0.14-0.34,0.33-0.6,0.59-0.779c0.25-0.181,0.54-0.28,0.86-0.28
					c0.31,0,0.59,0.09,0.85,0.27c0.26,0.181,0.47,0.441,0.62,0.771c0.15,0.34,0.23,0.74,0.23,1.21
					C221.933,469.293,221.853,469.704,221.703,470.043z"/>
				<path style="fill:#4035C0;" d="M234.053,466.864c-0.24-0.521-0.58-0.92-1.02-1.2c-0.44-0.28-0.95-0.42-1.54-0.42
					c-0.5,0-0.93,0.1-1.27,0.28c-0.35,0.18-0.68,0.439-1.01,0.789v-2.689c0-0.32-0.08-0.57-0.22-0.74
					c-0.15-0.18-0.36-0.26-0.63-0.26c-0.25,0-0.45,0.09-0.6,0.27c-0.14,0.181-0.21,0.45-0.21,0.811v7.67c0,0.33,0.07,0.58,0.22,0.75
					s0.34,0.26,0.59,0.26s0.45-0.09,0.61-0.26c0.16-0.17,0.24-0.42,0.24-0.75v-0.17c0.19,0.22,0.35,0.39,0.46,0.5
					c0.12,0.109,0.26,0.22,0.43,0.33c0.17,0.1,0.37,0.19,0.61,0.25c0.24,0.06,0.49,0.1,0.76,0.1c0.44,0,0.85-0.09,1.22-0.27
					c0.36-0.181,0.68-0.431,0.93-0.761c0.26-0.319,0.46-0.71,0.59-1.149c0.14-0.45,0.2-0.93,0.2-1.47
					C234.413,468.013,234.293,467.393,234.053,466.864z M232.173,470.444c-0.32,0.39-0.7,0.58-1.14,0.58
					c-0.52,0-0.94-0.19-1.26-0.57c-0.32-0.37-0.48-0.91-0.48-1.61c0-0.47,0.08-0.89,0.23-1.229c0.15-0.351,0.35-0.61,0.61-0.79
					c0.27-0.181,0.56-0.28,0.9-0.28c0.32,0,0.61,0.1,0.85,0.28c0.25,0.18,0.441,0.439,0.57,0.77c0.13,0.34,0.2,0.74,0.2,1.2
					C232.653,469.513,232.493,470.063,232.173,470.444z"/>
				<path style="fill:#4035C0;" d="M240.843,465.624c-0.07-0.12-0.16-0.21-0.28-0.28c-0.12-0.069-0.25-0.109-0.38-0.109
					c-0.19,0-0.33,0.029-0.43,0.1c-0.1,0.06-0.2,0.19-0.29,0.37c-0.09,0.189-0.19,0.439-0.3,0.77l-1.41,4.021l-1.49-4.33
					c-0.1-0.3-0.21-0.53-0.34-0.69c-0.13-0.16-0.32-0.239-0.57-0.239c-0.15,0-0.29,0.04-0.42,0.119
					c-0.14,0.07-0.25,0.181-0.32,0.311c-0.08,0.12-0.12,0.26-0.12,0.41c0,0.149,0.07,0.37,0.2,0.689l2.16,5.44l-0.16,0.399
					c-0.12,0.28-0.22,0.5-0.32,0.65c-0.09,0.15-0.19,0.25-0.31,0.309c-0.11,0.061-0.27,0.091-0.47,0.091
					c-0.09,0-0.18-0.011-0.29-0.04c-0.09-0.021-0.19-0.04-0.28-0.04c-0.24,0-0.42,0.06-0.54,0.17c-0.13,0.109-0.19,0.26-0.19,0.46
					c0,0.3,0.13,0.5,0.39,0.62c0.26,0.109,0.64,0.16,1.16,0.16c0.52,0,0.94-0.08,1.25-0.24c0.32-0.16,0.57-0.391,0.75-0.69
					c0.19-0.3,0.39-0.71,0.58-1.24l2.3-6c0.05-0.159,0.1-0.309,0.14-0.46c0.04-0.149,0.06-0.27,0.08-0.35
					C240.943,465.874,240.913,465.744,240.843,465.624z"/>
			</g>
			<g>
				<path style="fill:#4035C0;" d="M262.154,465.386h0.419v-0.527c0-0.552,0.067-0.987,0.207-1.313
					c0.139-0.324,0.377-0.56,0.71-0.708c0.332-0.147,0.788-0.222,1.367-0.222c1.029,0,1.54,0.249,1.54,0.755
					c0,0.162-0.054,0.302-0.163,0.417c-0.104,0.115-0.232,0.174-0.378,0.174c-0.067,0-0.188-0.013-0.357-0.04
					c-0.161-0.022-0.307-0.038-0.422-0.038c-0.317,0-0.52,0.096-0.614,0.281c-0.086,0.187-0.132,0.453-0.132,0.803v0.418h0.429
					c0.672,0,1.004,0.201,1.004,0.607c0,0.284-0.086,0.468-0.267,0.545c-0.177,0.078-0.423,0.116-0.737,0.116h-0.429v4.656
					c0,0.347-0.082,0.61-0.25,0.792c-0.164,0.185-0.376,0.275-0.639,0.275c-0.249,0-0.455-0.091-0.622-0.275
					c-0.166-0.182-0.247-0.445-0.247-0.792v-4.656h-0.484c-0.263,0-0.462-0.057-0.605-0.178c-0.142-0.115-0.213-0.271-0.213-0.459
					C261.27,465.595,261.565,465.386,262.154,465.386L262.154,465.386z"/>
				<path style="fill:#4035C0;" d="M267.906,469.842v1.469c0,0.355-0.09,0.623-0.253,0.8c-0.168,0.18-0.379,0.268-0.636,0.268
					c-0.259,0-0.466-0.089-0.628-0.272c-0.16-0.179-0.244-0.444-0.244-0.796v-4.895c0-0.79,0.284-1.186,0.854-1.186
					c0.294,0,0.503,0.092,0.633,0.276c0.128,0.186,0.199,0.457,0.215,0.819c0.208-0.362,0.423-0.634,0.643-0.819
					c0.225-0.185,0.517-0.276,0.888-0.276c0.372,0,0.727,0.092,1.074,0.276c0.349,0.186,0.522,0.432,0.522,0.735
					c0,0.214-0.075,0.394-0.221,0.53c-0.149,0.142-0.308,0.211-0.478,0.211c-0.067,0-0.225-0.043-0.47-0.122
					c-0.247-0.077-0.467-0.117-0.652-0.117c-0.258,0-0.47,0.069-0.632,0.202c-0.164,0.139-0.291,0.337-0.382,0.601
					c-0.088,0.268-0.148,0.587-0.185,0.952C267.922,468.867,267.906,469.315,267.906,469.842L267.906,469.842z"/>
				<path style="fill:#4035C0;" d="M276.723,469.963c-0.16,0-0.29,0.04-0.38,0.12c-0.22,0.2-0.399,0.37-0.54,0.479
					c-0.14,0.131-0.279,0.24-0.449,0.341c-0.16,0.109-0.33,0.189-0.5,0.229c-0.181,0.061-0.37,0.08-0.58,0.08
					c-0.311,0-0.601-0.08-0.86-0.23c-0.26-0.16-0.47-0.391-0.63-0.69c-0.15-0.3-0.23-0.66-0.24-1.06h3.44
					c0.46,0,0.819-0.06,1.069-0.19c0.25-0.14,0.38-0.42,0.38-0.86c0-0.479-0.12-0.939-0.37-1.409c-0.239-0.461-0.609-0.83-1.1-1.12
					c-0.49-0.29-1.08-0.431-1.77-0.431c-0.53,0-1.011,0.08-1.441,0.25c-0.43,0.17-0.8,0.41-1.09,0.73c-0.3,0.32-0.53,0.7-0.68,1.14
					c-0.16,0.45-0.23,0.931-0.23,1.45c0,1.1,0.31,1.98,0.941,2.62c0.619,0.64,1.5,0.96,2.63,0.96c0.489,0,0.93-0.061,1.31-0.19
					c0.38-0.13,0.7-0.29,0.95-0.479c0.25-0.2,0.44-0.4,0.57-0.62c0.12-0.21,0.18-0.39,0.18-0.55c0-0.181-0.06-0.32-0.17-0.42
					C277.053,470.013,276.904,469.963,276.723,469.963z M273.063,466.893c0.28-0.3,0.641-0.449,1.07-0.449
					c0.471,0,0.83,0.149,1.12,0.449c0.28,0.29,0.441,0.74,0.48,1.341h-3.19C272.604,467.643,272.774,467.204,273.063,466.893z"/>
				<path style="fill:#4035C0;" d="M284.033,469.963c-0.16,0-0.29,0.04-0.38,0.12c-0.221,0.2-0.4,0.37-0.54,0.479
					c-0.141,0.131-0.28,0.24-0.45,0.341c-0.16,0.109-0.33,0.189-0.51,0.229c-0.17,0.061-0.36,0.08-0.57,0.08
					c-0.31,0-0.6-0.08-0.86-0.23c-0.26-0.16-0.47-0.391-0.619-0.69c-0.16-0.3-0.24-0.66-0.25-1.06h3.439c0.46,0,0.82-0.06,1.07-0.19
					c0.25-0.14,0.38-0.42,0.38-0.86c0-0.479-0.12-0.939-0.37-1.409c-0.24-0.461-0.61-0.83-1.1-1.12
					c-0.5-0.29-1.08-0.431-1.771-0.431c-0.53,0-1.01,0.08-1.44,0.25c-0.439,0.17-0.8,0.41-1.09,0.73c-0.3,0.32-0.529,0.7-0.68,1.14
					c-0.16,0.45-0.24,0.931-0.24,1.45c0,1.1,0.32,1.98,0.95,2.62c0.62,0.64,1.5,0.96,2.63,0.96c0.49,0,0.93-0.061,1.311-0.19
					c0.38-0.13,0.699-0.29,0.949-0.479c0.25-0.2,0.44-0.4,0.56-0.62c0.13-0.21,0.18-0.39,0.18-0.55c0-0.181-0.05-0.32-0.16-0.42
					C284.363,470.013,284.213,469.963,284.033,469.963z M280.363,466.893c0.29-0.3,0.649-0.449,1.08-0.449
					c0.46,0,0.83,0.149,1.119,0.449c0.28,0.29,0.44,0.74,0.48,1.341h-3.189C279.913,467.643,280.083,467.204,280.363,466.893z"/>
				<path style="fill:#4035C0;" d="M292.343,468.584c-0.02-0.65-0.149-1.21-0.38-1.7c-0.27-0.53-0.63-0.939-1.08-1.22
					c-0.46-0.28-0.96-0.42-1.5-0.42c-0.45,0-0.85,0.1-1.2,0.29c-0.359,0.19-0.71,0.49-1.04,0.9v-0.21
					c0-0.33-0.069-0.569-0.229-0.739c-0.16-0.171-0.36-0.25-0.61-0.25s-0.449,0.079-0.6,0.239c-0.15,0.17-0.22,0.42-0.22,0.761
					v7.579c0,0.391,0.06,0.671,0.159,0.881c0.11,0.189,0.33,0.29,0.66,0.29c0.56,0,0.84-0.391,0.84-1.16v-2.63
					c0.181,0.22,0.36,0.409,0.551,0.569c0.14,0.12,0.279,0.221,0.43,0.311c0.34,0.2,0.76,0.3,1.26,0.3c0.42,0,0.811-0.08,1.17-0.24
					c0.37-0.17,0.681-0.41,0.95-0.71c0.26-0.31,0.47-0.69,0.63-1.14c0.15-0.45,0.221-0.95,0.221-1.49
					C292.354,468.723,292.354,468.654,292.343,468.584z M290.363,470.004c-0.15,0.34-0.34,0.59-0.601,0.76
					c-0.239,0.17-0.52,0.261-0.81,0.261c-0.06,0-0.12,0-0.17-0.02c-0.42-0.03-0.771-0.23-1.06-0.57
					c-0.33-0.38-0.489-0.93-0.489-1.63c0-0.74,0.159-1.3,0.5-1.69c0.329-0.38,0.739-0.57,1.22-0.57c0.31,0,0.59,0.09,0.84,0.27
					c0.25,0.181,0.44,0.431,0.58,0.771c0.15,0.33,0.22,0.729,0.22,1.19c0,0.43-0.06,0.8-0.189,1.109
					C290.393,469.923,290.383,469.963,290.363,470.004z"/>
				<path style="fill:#4035C0;" d="M294.743,465.494c-0.17-0.181-0.38-0.26-0.64-0.26c-0.25,0-0.461,0.079-0.62,0.26
					c-0.16,0.18-0.25,0.439-0.25,0.79v5.029c0,0.341,0.09,0.601,0.25,0.79c0.159,0.181,0.37,0.271,0.62,0.271
					c0.26,0,0.47-0.08,0.64-0.271c0.17-0.18,0.25-0.439,0.25-0.79v-5.079C294.993,465.914,294.913,465.673,294.743,465.494z
					 M294.734,462.914c-0.181-0.15-0.38-0.22-0.61-0.22c-0.23,0-0.44,0.08-0.62,0.239c-0.18,0.16-0.27,0.37-0.27,0.62
					c0,0.27,0.09,0.48,0.27,0.63c0.17,0.15,0.38,0.23,0.62,0.23c0.24,0,0.439-0.08,0.62-0.23c0.17-0.15,0.25-0.359,0.25-0.63
					C294.993,463.274,294.904,463.053,294.734,462.914z"/>
				<path style="fill:#4035C0;" d="M300.661,471.576l-1.548-2.552l-0.954,0.9v1.399c0,0.339-0.09,0.598-0.269,0.779
					c-0.175,0.185-0.384,0.275-0.614,0.275c-0.27,0-0.484-0.089-0.638-0.272c-0.153-0.179-0.232-0.444-0.232-0.796v-7.498
					c0-0.388,0.077-0.684,0.224-0.89c0.151-0.207,0.369-0.307,0.646-0.307c0.271,0,0.483,0.093,0.644,0.279
					c0.158,0.183,0.239,0.456,0.239,0.814v4.265l1.977-2.075c0.245-0.255,0.429-0.435,0.561-0.527
					c0.128-0.095,0.283-0.142,0.467-0.142c0.221,0,0.402,0.07,0.553,0.209c0.143,0.14,0.217,0.316,0.217,0.524
					c0,0.257-0.239,0.603-0.715,1.031l-0.933,0.855l1.802,2.835c0.131,0.213,0.229,0.368,0.287,0.479
					c0.058,0.107,0.088,0.217,0.088,0.313c0,0.28-0.077,0.498-0.23,0.661c-0.152,0.161-0.354,0.24-0.601,0.24
					c-0.214,0-0.382-0.055-0.497-0.174C301.019,472.087,300.859,471.878,300.661,471.576L300.661,471.576z"/>
				<path style="fill:#4035C0;" d="M304.481,472.379c-0.265,0-0.492-0.086-0.686-0.258c-0.192-0.169-0.291-0.411-0.291-0.722
					c0-0.262,0.094-0.487,0.278-0.675c0.186-0.19,0.412-0.283,0.684-0.283c0.268,0,0.498,0.094,0.692,0.279
					c0.19,0.186,0.286,0.414,0.286,0.679c0,0.307-0.097,0.547-0.286,0.718C304.963,472.293,304.737,472.379,304.481,472.379
					L304.481,472.379z"/>
				<path style="fill:#4035C0;" d="M313.223,470.203c0,0.218-0.066,0.453-0.197,0.701c-0.13,0.251-0.331,0.486-0.601,0.712
					c-0.268,0.225-0.604,0.408-1.013,0.544c-0.407,0.137-0.868,0.208-1.376,0.208c-1.089,0-1.938-0.318-2.547-0.949
					c-0.607-0.635-0.912-1.484-0.912-2.549c0-0.723,0.138-1.359,0.419-1.914c0.276-0.552,0.681-0.98,1.208-1.283
					c0.527-0.304,1.162-0.454,1.894-0.454c0.456,0,0.873,0.066,1.255,0.2c0.38,0.132,0.7,0.306,0.966,0.515
					c0.262,0.213,0.465,0.436,0.603,0.672c0.14,0.238,0.208,0.462,0.208,0.669c0,0.209-0.077,0.388-0.232,0.534
					c-0.159,0.146-0.35,0.22-0.568,0.22c-0.148,0-0.27-0.039-0.367-0.113c-0.097-0.076-0.206-0.196-0.324-0.367
					c-0.215-0.324-0.438-0.57-0.675-0.731c-0.232-0.164-0.528-0.245-0.89-0.245c-0.517,0-0.938,0.202-1.257,0.608
					c-0.316,0.403-0.477,0.962-0.477,1.663c0,0.331,0.043,0.637,0.124,0.913c0.079,0.276,0.197,0.513,0.353,0.708
					c0.156,0.194,0.342,0.342,0.561,0.443c0.22,0.104,0.461,0.152,0.721,0.152c0.353,0,0.655-0.081,0.905-0.244
					c0.255-0.163,0.477-0.411,0.669-0.747c0.107-0.197,0.222-0.351,0.345-0.463c0.124-0.111,0.277-0.169,0.458-0.169
					c0.215,0,0.393,0.083,0.533,0.245C313.151,469.844,313.223,470.02,313.223,470.203L313.223,470.203z"/>
				<path style="fill:#4035C0;" d="M320.563,467.353c-0.159-0.43-0.39-0.81-0.699-1.13c-0.31-0.319-0.681-0.56-1.11-0.729
					c-0.44-0.181-0.92-0.26-1.45-0.26c-0.529,0-1.01,0.079-1.44,0.25c-0.431,0.17-0.801,0.409-1.11,0.73
					c-0.3,0.311-0.54,0.69-0.7,1.13c-0.16,0.44-0.24,0.931-0.24,1.46c0,0.53,0.08,1.01,0.23,1.45c0.17,0.43,0.4,0.809,0.72,1.13
					c0.3,0.32,0.681,0.57,1.101,0.74s0.899,0.26,1.44,0.26c0.53,0,1.01-0.09,1.45-0.26c0.42-0.17,0.79-0.41,1.101-0.73
					c0.31-0.319,0.55-0.699,0.709-1.14c0.16-0.441,0.24-0.93,0.24-1.45C320.803,468.274,320.723,467.793,320.563,467.353z
					 M318.573,470.463c-0.32,0.41-0.74,0.61-1.27,0.61c-0.359,0-0.66-0.09-0.92-0.27c-0.26-0.19-0.46-0.45-0.6-0.8
					c-0.141-0.34-0.21-0.74-0.21-1.2c0-0.46,0.069-0.87,0.21-1.22c0.14-0.34,0.34-0.61,0.609-0.79c0.261-0.17,0.56-0.26,0.91-0.26
					c0.53,0,0.95,0.2,1.27,0.6c0.31,0.4,0.47,0.96,0.47,1.67C319.043,469.513,318.883,470.063,318.573,470.463z"/>
				<path style="fill:#4035C0;" d="M327.511,468.935v2.336c0,0.371-0.082,0.645-0.251,0.832c-0.169,0.185-0.387,0.276-0.662,0.276
					c-0.267,0-0.484-0.092-0.645-0.276c-0.168-0.188-0.252-0.461-0.252-0.832v-2.8c0-0.442-0.015-0.787-0.043-1.033
					c-0.031-0.239-0.114-0.443-0.246-0.598c-0.133-0.16-0.345-0.238-0.631-0.238c-0.576,0-0.953,0.196-1.136,0.597
					c-0.182,0.391-0.275,0.958-0.275,1.699v2.373c0,0.364-0.083,0.642-0.245,0.829c-0.169,0.186-0.385,0.279-0.654,0.279
					c-0.268,0-0.485-0.094-0.655-0.279c-0.17-0.188-0.255-0.465-0.255-0.829v-5.028c0-0.331,0.076-0.583,0.228-0.753
					c0.155-0.174,0.356-0.259,0.602-0.259c0.242,0,0.441,0.084,0.605,0.241c0.16,0.161,0.24,0.384,0.24,0.667v0.166
					c0.308-0.362,0.634-0.631,0.978-0.8c0.351-0.177,0.733-0.262,1.161-0.262c0.441,0,0.82,0.089,1.137,0.264
					c0.318,0.177,0.579,0.444,0.787,0.798c0.298-0.358,0.616-0.625,0.955-0.8c0.339-0.175,0.714-0.262,1.127-0.262
					c0.478,0,0.895,0.097,1.242,0.284c0.346,0.189,0.605,0.46,0.778,0.81c0.149,0.32,0.224,0.82,0.224,1.503v3.431
					c0,0.371-0.083,0.645-0.249,0.832c-0.167,0.185-0.39,0.276-0.664,0.276c-0.268,0-0.483-0.094-0.653-0.279
					c-0.17-0.188-0.255-0.465-0.255-0.829v-2.956c0-0.378-0.017-0.68-0.047-0.906c-0.032-0.228-0.12-0.421-0.26-0.574
					c-0.144-0.154-0.359-0.232-0.645-0.232c-0.232,0-0.452,0.072-0.66,0.208c-0.208,0.135-0.371,0.323-0.488,0.551
					C327.577,467.658,327.511,468.183,327.511,468.935L327.511,468.935z"/>
			</g>
			<g>
				<path style="fill:#4035C0;" d="M245.706,468.38c-0.002-0.003-0.002-0.006-0.002-0.012
					C245.705,468.375,245.705,468.378,245.706,468.38z"/>
				<path style="fill:#4035C0;" d="M245.795,468.943c0.001,0,0.001,0,0.002,0c-0.034-0.16-0.06-0.319-0.081-0.476
					C245.737,468.625,245.763,468.785,245.795,468.943z"/>
				<path style="fill:#4035C0;" d="M246.377,470.574c-0.004-0.007-0.007-0.015-0.012-0.022
					C246.369,470.559,246.373,470.567,246.377,470.574z"/>
				<path style="fill:#4035C0;" d="M246.321,470.465c-0.015-0.03-0.03-0.061-0.044-0.091
					C246.291,470.406,246.306,470.435,246.321,470.465z"/>
				<path style="fill:#4035C0;" d="M245.958,469.571c0.086,0.271,0.19,0.534,0.31,0.785c-0.122-0.256-0.224-0.52-0.308-0.785
					C245.961,469.571,245.959,469.571,245.958,469.571z"/>
				<path style="fill:#4035C0;" d="M252.509,461.647c0.34,0,0.59,0.026,0.878,0.075l0.081-0.517c0,0-0.794-0.244-1.837-0.159
					l-0.082-0.281c0.324-0.068,0.567-0.357,0.567-0.701c0-0.395-0.321-0.714-0.716-0.714c-0.395,0-0.716,0.319-0.716,0.714
					c0,0.345,0.243,0.633,0.567,0.701l0.09,0.314c-1.107,0.152-1.989,0.585-1.989,0.585l0.156,0.478
					c0.67-0.224,1.251-0.358,1.778-0.416C251.804,461.671,252.193,461.647,252.509,461.647z"/>
				<path style="fill:#4035C0;" d="M246.363,464.261l0.004-0.005c0.026-0.034,0.051-0.065,0.077-0.097l-0.212-0.153l-0.33-0.241
					c-0.019,0.025-0.539,0.504-0.95,1.388c-0.018-0.027-0.038-0.055-0.061-0.081c-0.123-0.134-0.295-0.202-0.514-0.198
					c-0.003,0-0.006,0-0.01,0c-0.135,0-0.228-0.046-0.289-0.101c0.061-0.076,0.097-0.173,0.097-0.28
					c0-0.249-0.203-0.453-0.454-0.453c-0.249,0-0.453,0.204-0.453,0.453c0,0.251,0.204,0.454,0.453,0.454
					c0.04,0,0.077-0.007,0.113-0.014c0.111,0.123,0.288,0.231,0.547,0.225c0.133-0.001,0.231,0.033,0.296,0.105
					c0.075,0.082,0.1,0.2,0.108,0.29c-0.001,0.001-0.001,0.003-0.002,0.003c-0.295,0.807-0.211,1.81-0.211,1.81l0.716,0.028
					c0.015-0.365,0.067-1.004,0.252-1.512C245.899,464.902,246.345,464.288,246.363,464.261z"/>
				<path style="fill:#4035C0;" d="M258.743,462.246c-0.249,0-0.453,0.202-0.453,0.453c0,0.039,0.006,0.076,0.016,0.112
					c-0.124,0.112-0.232,0.29-0.229,0.549c0.002,0.134-0.032,0.23-0.104,0.296c-0.058,0.051-0.13,0.078-0.2,0.096
					c-0.533-0.747-1.191-1.203-1.191-1.203l-0.514,0.551c0.389,0.353,0.785,0.797,1.171,1.349c0.267,0.382,0.542,0.875,0.771,1.366
					l0.693-0.33c0,0-0.316-0.783-0.763-1.485c0.077-0.027,0.155-0.069,0.225-0.13c0.136-0.123,0.202-0.296,0.198-0.514
					c-0.001-0.142,0.045-0.236,0.101-0.3c0.077,0.06,0.174,0.098,0.279,0.098c0.252,0,0.454-0.204,0.454-0.454
					C259.197,462.448,258.995,462.246,258.743,462.246z"/>
				<path style="fill:#4035C0;" d="M256.943,468.482c-0.955,0.466-2.527,1.08-4.596,1.369c-0.812,0.112-1.599,0.154-2.324,0.154
					c-0.942,0-1.775-0.07-2.414-0.151c-0.73-0.092-1.3-0.204-1.648-0.283c0.083,0.266,0.186,0.529,0.308,0.785
					c0.002,0.007,0.005,0.014,0.008,0.019c0.015,0.029,0.029,0.06,0.044,0.091c0.015,0.029,0.029,0.059,0.044,0.086
					c0.004,0.008,0.008,0.016,0.012,0.022c0.205,0.387,0.452,0.742,0.732,1.05c0.976,1.067,1.97,1.236,1.979,1.237l0.016,0.002
					l0.015,0.005c0.009,0.004,0.89,0.288,2.23,0.288c1.319,0,2.613-0.266,3.845-0.791c0.913-0.467,1.777-1.177,2.205-1.81
					c0.331-0.489,0.57-1.012,0.712-1.555c0.075-0.288,0.135-0.75,0.1-1.236C257.943,467.945,257.518,468.202,256.943,468.482z"/>
				<path style="fill:#4035C0;" d="M256.923,464.664c-1.35-1.94-2.819-2.44-3.569-2.561c-0.29-0.05-0.521-0.069-0.841-0.069
					c-0.31,0-0.68,0.02-1.189,0.069c-0.5,0.051-1.06,0.19-1.71,0.41c-0.92,0.3-1.74,0.78-2.39,1.38l-0.02,0.021
					c-0.1,0.09-0.3,0.28-0.53,0.57c-0.03,0.04-0.45,0.63-0.77,1.529c-0.25,0.681-0.24,1.66-0.24,1.67c0,0.23,0.02,0.46,0.04,0.69
					c0,0,0,0,0,0.01c0.01,0.03,0.01,0.05,0.01,0.08c0.02,0.16,0.05,0.32,0.08,0.48c0.48,0.119,3.31,0.779,6.47,0.34
					c1.99-0.28,3.49-0.86,4.41-1.31c0.76-0.359,1.25-0.699,1.44-0.84C257.923,466.444,257.404,465.343,256.923,464.664z
					 M249.403,467.803c-1.06,0-1.91-0.85-1.91-1.91c0-1.05,0.85-1.899,1.91-1.899c1.05,0,1.91,0.85,1.91,1.899
					C251.313,466.954,250.453,467.803,249.403,467.803z M254.984,466.404c-0.65,0-1.181-0.53-1.181-1.19
					c0-0.65,0.53-1.18,1.181-1.18c0.649,0,1.18,0.529,1.18,1.18C256.163,465.874,255.633,466.404,254.984,466.404z"/>
			</g>
		</g>
	</g>
</g>
</svg>
